<?xml version="1.0" encoding="utf-8"?>
<!-- Generator: Adobe Illustrator 27.0.0, SVG Export Plug-In . SVG Version: 6.00 Build 0)  -->
<svg version="1.1" id="Layer_1" xmlns="http://www.w3.org/2000/svg" xmlns:xlink="http://www.w3.org/1999/xlink" x="0px" y="0px"
	 viewBox="0 0 458.2 220.1" style="enable-background:new 0 0 458.2 220.1;" xml:space="preserve">
<style type="text/css">
	.st0{fill:#FFFFFF;}
	.st1{fill:url(#SVGID_1_);}
	.st2{fill:url(#SVGID_00000181059521222324578560000003010973612509976448_);}
	.st3{fill:url(#SVGID_00000011737227475226665860000018424241918721497480_);}
	.st4{clip-path:url(#SVGID_00000161592173564562021640000011418632230586513035_);}
	.st5{fill:url(#SVGID_00000130612322360977009920000000777794251280026545_);}
	.st6{fill:url(#SVGID_00000036209144194632860160000012671888478859129018_);}
	.st7{clip-path:url(#SVGID_00000039134762025603046840000004103952894995995305_);}
	.st8{fill:url(#SVGID_00000108280704091533303340000012785985495916200870_);}
	.st9{clip-path:url(#SVGID_00000004536000397177712060000001974740443298484657_);}
	.st10{fill:url(#SVGID_00000002353896926844639690000000269616549747319482_);}
	.st11{fill:url(#SVGID_00000181078801520629546610000004768292075972825991_);}
	.st12{fill:url(#SVGID_00000124134116524953570050000001655619867043781273_);}
	.st13{fill:url(#SVGID_00000072262207954270980980000013812668451140429719_);}
	.st14{clip-path:url(#SVGID_00000052824083258216351610000005410173922133777598_);}
	.st15{fill:#1879ED;}
</style>
<g id="Layer_2_00000074399521155358343550000002601957036328420013_">
	<g id="Layer_1-2">
		<path class="st0" d="M278.9,195.1h-11.2v-40.8h21.5c2.5,0,5,0.6,7.2,1.8c2.1,1.1,3.8,2.8,5,4.8c1.3,2.1,1.9,4.5,1.9,6.9
			c0,2.4-0.6,4.7-1.9,6.8c-1.2,2-3,3.6-5,4.7c-2.2,1.2-4.7,1.8-7.2,1.7h-10.3L278.9,195.1z M269.3,193.6h8.1v-14.1h11.8
			c2.3,0,4.5-0.5,6.5-1.5c1.8-1,3.4-2.4,4.5-4.2c1.1-1.8,1.7-3.9,1.6-6c0.1-4.3-2.3-8.4-6.1-10.4c-2-1.1-4.2-1.6-6.5-1.6h-20V193.6z
			 M288.1,173h-10.7v-10.5h10.7c1.5-0.1,2.9,0.5,4,1.5c1,1,1.6,2.4,1.5,3.8c0,1.4-0.5,2.8-1.5,3.7C291,172.6,289.6,173.1,288.1,173z
			 M278.9,171.5h9.2c1.1,0.1,2.1-0.3,2.9-1c0.7-0.7,1.1-1.7,1.1-2.7c0.1-1-0.3-2-1-2.7c-0.8-0.7-1.8-1.1-2.9-1.1h-9.2L278.9,171.5z"
			/>
		<path class="st0" d="M339,195.1h-31.9v-40.8h11.2V185H339V195.1z M308.6,193.6h28.9v-7h-20.8v-30.8h-8.1L308.6,193.6z"/>
		<path class="st0" d="M385.6,195.1h-12.1l-3.5-9.5h-14.3l-3.7,9.5h-11.7l16.7-40.8h12.1L385.6,195.1z M374.6,193.6h8.8l-15.3-37.8
			h-10l-15.5,37.8h8.4l3.6-9.5H371L374.6,193.6z M368.7,177.9H357l5.9-15.4L368.7,177.9z M359.2,176.4h7.4l-3.6-9.7L359.2,176.4z"/>
		<path class="st0" d="M458.2,195.1h-32.7v-40.8h32.5v9.9h-21.3v5.6h14.1v9.6h-14.1v5.9h21.5L458.2,195.1z M427,193.6h29.7v-6.9
			h-21.6v-8.9h14.1v-6.6h-14.1v-8.6h21.3v-6.9H427V193.6z"/>
		
			<linearGradient id="SVGID_1_" gradientUnits="userSpaceOnUse" x1="204.48" y1="142.2" x2="281.0915" y2="142.2" gradientTransform="matrix(1 0 0 -1 0 222)">
			<stop  offset="0" style="stop-color:#9EEDFF"/>
			<stop  offset="0.32" style="stop-color:#9EEDFF"/>
			<stop  offset="0.95" style="stop-color:#AFC6E9"/>
			<stop  offset="1" style="stop-color:#AFC6E9"/>
		</linearGradient>
		<path class="st1" d="M242.7,122.5c-7.8,0-14.5-1.5-20.3-4.6c-5.6-3-10.3-7.6-13.3-13.2c-3.1-5.7-4.7-12.4-4.7-20.1V37.1h20.7v47.5
			c-0.1,3.4,0.7,6.8,2.2,9.9c1.4,2.8,3.5,5,6.2,6.6c2.9,1.6,6.1,2.3,9.3,2.3c3.3,0.1,6.5-0.7,9.3-2.3c2.6-1.5,4.7-3.8,6.1-6.6
			c1.5-3.1,2.2-6.5,2.2-9.9V37.1h20.7v47.5c0.2,7-1.5,13.9-4.7,20c-3.1,5.6-7.7,10.2-13.3,13.2C257.3,120.9,250.5,122.5,242.7,122.5
			z"/>
		
			<linearGradient id="SVGID_00000060009623784450937000000007638058978694878905_" gradientUnits="userSpaceOnUse" x1="289" y1="142.8" x2="364.76" y2="142.8" gradientTransform="matrix(1 0 0 -1 0 222)">
			<stop  offset="0" style="stop-color:#9EEDFF"/>
			<stop  offset="0.32" style="stop-color:#9EEDFF"/>
			<stop  offset="0.95" style="stop-color:#AFC6E9"/>
			<stop  offset="1" style="stop-color:#AFC6E9"/>
		</linearGradient>
		<path style="fill:url(#SVGID_00000060009623784450937000000007638058978694878905_);" d="M316.6,121.3V55.4H289V37.1h75.8v18.3
			h-27.5v65.9H316.6z"/>
		
			<linearGradient id="SVGID_00000152232854093222056430000007980646409111001788_" gradientUnits="userSpaceOnUse" x1="477.0598" y1="311.9028" x2="567.0161" y2="311.9028" gradientTransform="matrix(0.973 0.2307 0.2307 -0.973 -167.6631 264.4059)">
			<stop  offset="0" style="stop-color:#9EEDFF"/>
			<stop  offset="0.32" style="stop-color:#9EEDFF"/>
			<stop  offset="0.95" style="stop-color:#AFC6E9"/>
			<stop  offset="1" style="stop-color:#AFC6E9"/>
		</linearGradient>
		<path style="fill:url(#SVGID_00000152232854093222056430000007980646409111001788_);" d="M456.6,74.4c-1-5.6-3.1-10.9-6.1-15.7
			c-3.1-4.8-7.1-9-11.8-12.3c-10-6.9-22.3-9.8-34.4-8.2c-5.7,0.8-11.1,2.8-16.1,5.7c-4.9,2.9-9.1,6.7-12.5,11.2
			c-7,9.5-9.8,21.5-7.9,33.1c1,5.6,3.1,10.9,6.1,15.6c3.1,4.8,7.1,9,11.8,12.3c5,3.5,10.5,6,16.4,7.3c1.6,0.4,3.3,0.7,4.9,0.9
			l2.1,0.1c0-0.3,0.1-0.7,0.1-1c0.6-2.7,3.3-4.3,6-3.7c2.2,0.5,3.7,2.4,3.8,4.6l1-0.1c5.7-0.8,11.1-2.8,16.1-5.7
			c4.9-2.9,9.1-6.7,12.5-11.2C455.7,97.9,458.6,86,456.6,74.4L456.6,74.4z M431.3,95.8c-7.6,10.7-22.4,13.1-33,5.6
			c-2.6-1.9-4.8-4.2-6.5-7c-1.6-2.7-2.6-5.6-3.1-8.7c-0.5-3.3-0.3-6.6,0.5-9.8c0.7-3.3,2.1-6.3,4-9.1c3.5-5.1,9-8.6,15.1-9.6
			c12.8-2.3,25,6.1,27.3,18.9c0.1,0.3,0.1,0.5,0.1,0.8c0.5,3.3,0.3,6.7-0.5,9.9C434.5,90.1,433.2,93.1,431.3,95.8z"/>
		<g>
			<defs>
				<path id="SVGID_00000009586493094022639240000015656504950556315523_" d="M49.1,21C7.1,54.3,0,115.4,33.3,157.5
					s94.4,49.1,136.5,15.8c1.8-1.4,3.5-2.8,5.1-4.4v-67.3c0-1-0.8-1.8-1.8-1.8c-0.5,0-0.9,0.2-1.2,0.5l-31.2,35.8
					c-2.6,3-7.1,3.3-10.1,0.7c0,0,0,0,0,0c-0.2-0.2-0.5-0.4-0.7-0.7l-31.2-35.9c-0.7-0.7-1.9-0.6-2.5,0.1c-0.3,0.3-0.5,0.7-0.5,1.2
					v69.5c-19.5,0-35.2-13-35.2-32.4v-101c0-5,4-9,9-9c4.7,0,9.3,1.8,12.7,5.2l50.5,52.6c1.3,1.5,3.6,1.6,5.1,0.2
					c0.1-0.1,0.2-0.2,0.2-0.2l47.7-49.6C152.3-5.2,91.2-12.3,49.1,21C49.1,21,49.1,21,49.1,21"/>
			</defs>
			<clipPath id="SVGID_00000148625000460027024700000003800600500806059421_">
				<use xlink:href="#SVGID_00000009586493094022639240000015656504950556315523_"  style="overflow:visible;"/>
			</clipPath>
			<g style="clip-path:url(#SVGID_00000148625000460027024700000003800600500806059421_);">
				
					<linearGradient id="SVGID_00000129168031500239067480000005438888841532085438_" gradientUnits="userSpaceOnUse" x1="-364.6194" y1="341.7939" x2="-363.7994" y2="341.7939" gradientTransform="matrix(211.93 0 0 -237.64 77285.5703 81327.2266)">
					<stop  offset="0" style="stop-color:#9EEDFF"/>
					<stop  offset="0.32" style="stop-color:#9EEDFF"/>
					<stop  offset="0.95" style="stop-color:#AFC6E9"/>
					<stop  offset="1" style="stop-color:#AFC6E9"/>
				</linearGradient>
				<rect style="fill:url(#SVGID_00000129168031500239067480000005438888841532085438_);" width="185.6" height="206.6"/>
			</g>
		</g>
		
			<linearGradient id="SVGID_00000108297058307175147900000001671290072537310633_" gradientUnits="userSpaceOnUse" x1="134.27" y1="76.01" x2="170.44" y2="76.01" gradientTransform="matrix(1 0 0 -1 0 222)">
			<stop  offset="2.000000e-02" style="stop-color:#F7AF0F"/>
			<stop  offset="1" style="stop-color:#D14893"/>
		</linearGradient>
		<path style="fill:url(#SVGID_00000108297058307175147900000001671290072537310633_);" d="M144.1,139.1c-2.2,2.5-5.4,4-8.8,4
			c-0.3,0-0.6-0.1-1-0.1c5.2,12.8,8.5,26.3,9.7,40.1c9.7-3.9,18.6-9.3,26.4-16.2v-58.1L144.1,139.1z"/>
		<g>
			<defs>
				<path id="SVGID_00000093140466531235512550000003450763740654714809_" d="M144.1,139.1c-2.2,2.5-5.4,4-8.8,4
					c-0.3,0-0.6-0.1-1-0.1c5.2,12.8,8.5,26.3,9.7,40.1c9.7-3.9,18.6-9.3,26.4-16.2v-58.1L144.1,139.1z"/>
			</defs>
			<clipPath id="SVGID_00000013163432279312978530000001357654988642687122_">
				<use xlink:href="#SVGID_00000093140466531235512550000003450763740654714809_"  style="overflow:visible;"/>
			</clipPath>
			<g style="clip-path:url(#SVGID_00000013163432279312978530000001357654988642687122_);">
				
					<linearGradient id="SVGID_00000011746443959864296030000008396431005935891843_" gradientUnits="userSpaceOnUse" x1="-361.7236" y1="345.8821" x2="-360.9036" y2="345.8821" gradientTransform="matrix(-32.09 59.61 29 65.97 -21471.6406 -1136.021)">
					<stop  offset="0" style="stop-color:#FFD136"/>
					<stop  offset="0.7019" style="stop-color:#1879ED"/>
				</linearGradient>
				<polygon style="fill:url(#SVGID_00000011746443959864296030000008396431005935891843_);" points="154.2,71.9 116.3,142.2 
					150.6,220.1 188.4,149.8 				"/>
			</g>
		</g>
		<g>
			<defs>
				<path id="SVGID_00000002371042349463551190000013028512156351265215_" d="M109.5,4.5c-34.6,0-66.3,19.3-82.2,50
					c9.8,1.9,19.4,4.8,28.6,8.7V37.6c0-7.5,6.1-13.6,13.6-13.6c0,0,0,0,0,0c6,0,11.7,2.4,15.9,6.6l50,52l44.3-46.1
					c-17.5-20.4-43.1-32.2-70-32.1H109.5"/>
			</defs>
			<clipPath id="SVGID_00000155136935274233702600000013818965924336911295_">
				<use xlink:href="#SVGID_00000002371042349463551190000013028512156351265215_"  style="overflow:visible;"/>
			</clipPath>
			<g style="clip-path:url(#SVGID_00000155136935274233702600000013818965924336911295_);">
				
					<linearGradient id="SVGID_00000045583971571251674950000004194242298965330622_" gradientUnits="userSpaceOnUse" x1="-364.6266" y1="339.4827" x2="-363.8066" y2="339.4827" gradientTransform="matrix(186.34 0 0 -95.65 67971.0781 32515.1113)">
					<stop  offset="0" style="stop-color:#DCFAFF"/>
					<stop  offset="0.32" style="stop-color:#DCFAFF"/>
					<stop  offset="0.97" style="stop-color:#FDFFFF"/>
					<stop  offset="1" style="stop-color:#FDFFFF"/>
				</linearGradient>
				
					<rect x="27.2" y="4.5" style="fill:url(#SVGID_00000045583971571251674950000004194242298965330622_);" width="152.4" height="78.2"/>
			</g>
		</g>
		<path class="st0" d="M414.8,180.6c-1.1,1.4-2.5,2.6-4.2,3.4c-2.9,1.4-6.3,1.5-9.3,0.4c-1.3-0.5-2.4-1.3-3.4-2.2
			c-1-1-1.7-2.1-2.2-3.4c-0.5-1.3-0.8-2.7-0.8-4.2c0-1.5,0.2-2.9,0.8-4.3c0.5-1.2,1.2-2.4,2.2-3.3c1-0.9,2.1-1.7,3.3-2.2
			c3-1.2,6.4-1.1,9.3,0.4c1.7,0.9,3.2,2.2,4.4,3.7l0.5,0.7l7.6-7.4l-0.4-0.5c-0.8-1-1.6-1.9-2.6-2.7c-0.3,0.4-0.6,0.8-0.9,1.2
			c0.7,0.6,1.3,1.2,1.9,1.9l-5.4,5.4c-1.2-1.4-2.7-2.6-4.4-3.5c-3.3-1.6-7.1-1.8-10.6-0.4c-1.4,0.6-2.7,1.5-3.8,2.6
			c-1.1,1.1-1.9,2.4-2.5,3.8c-0.6,1.5-0.9,3.2-0.9,4.8c0,3.2,1.2,6.3,3.5,8.6c1.1,1.1,2.4,2,3.9,2.6c3.4,1.3,7.2,1.2,10.5-0.4
			c1.6-0.8,3-1.9,4.1-3.2l5.3,5.2c-1.1,1.3-2.4,2.4-3.8,3.3c-5.8,3.8-13.1,4.5-19.6,2c-2.4-1-4.6-2.4-6.5-4.1
			c-5.7-5.6-7.5-14.2-4.3-21.6c1-2.3,2.5-4.4,4.3-6.2c1.9-1.8,4.1-3.2,6.5-4.1c2.5-1,5.3-1.5,8-1.5c0.6,0,1.2,0,1.8,0.1l0,0
			c0-0.5,0-1,0.1-1.5c-3.6-0.3-7.2,0.2-10.5,1.5c-2.6,1-5,2.5-7,4.4c-2,1.9-3.6,4.2-4.7,6.7c-3.5,7.9-1.6,17.2,4.6,23.2
			c2,1.9,4.4,3.4,7,4.4c2.7,1.1,5.7,1.6,8.6,1.6c2.2,0,4.4-0.3,6.5-0.9c2.1-0.6,4.1-1.5,5.9-2.7c1.8-1.1,3.3-2.5,4.6-4.2l0.4-0.5
			l-7.4-7.3L414.8,180.6z"/>
		
			<linearGradient id="SVGID_00000057846887726302016890000001518211275317991338_" gradientUnits="userSpaceOnUse" x1="204.72" y1="3678.4829" x2="260.84" y2="3678.4829" gradientTransform="matrix(1 0 0 0.29 0 -898.39)">
			<stop  offset="0" style="stop-color:#FFD136"/>
			<stop  offset="1" style="stop-color:#A053FF"/>
		</linearGradient>
		
			<rect x="204.7" y="167.4" style="fill:url(#SVGID_00000057846887726302016890000001518211275317991338_);" width="56.1" height="2"/>
		
			<linearGradient id="SVGID_00000067210898329988032220000013198679564786880177_" gradientUnits="userSpaceOnUse" x1="409.16" y1="66.76" x2="419.18" y2="66.76" gradientTransform="matrix(1 0 0 -1 0 222)">
			<stop  offset="0" style="stop-color:#9EEDFF"/>
			<stop  offset="0.32" style="stop-color:#9EEDFF"/>
			<stop  offset="0.95" style="stop-color:#AFC6E9"/>
			<stop  offset="1" style="stop-color:#AFC6E9"/>
		</linearGradient>
		<circle style="fill:url(#SVGID_00000067210898329988032220000013198679564786880177_);" cx="414.2" cy="155.2" r="5"/>
		
			<linearGradient id="SVGID_00000106119972011571309980000017854652866208307888_" gradientUnits="userSpaceOnUse" x1="414.0507" y1="74.36" x2="414.2607" y2="90.97" gradientTransform="matrix(1 0 0 -1 0 222)">
			<stop  offset="0" style="stop-color:#A8D7F3"/>
			<stop  offset="9.000000e-02" style="stop-color:#A3D1EC;stop-opacity:0.97"/>
			<stop  offset="0.22" style="stop-color:#96C0D9;stop-opacity:0.89"/>
			<stop  offset="0.38" style="stop-color:#80A4B9;stop-opacity:0.76"/>
			<stop  offset="0.56" style="stop-color:#617C8D;stop-opacity:0.58"/>
			<stop  offset="0.75" style="stop-color:#3A4A54;stop-opacity:0.35"/>
			<stop  offset="0.96" style="stop-color:#0B0E10;stop-opacity:7.000000e-02"/>
			<stop  offset="1" style="stop-color:#000000;stop-opacity:0"/>
		</linearGradient>
		
			<rect x="414" y="126.2" style="fill:url(#SVGID_00000106119972011571309980000017854652866208307888_);" width="0.3" height="24"/>
		<g>
			<defs>
				<path id="SVGID_00000033369474086123992020000010504622648517376135_" d="M263.9,177.3c0,0,8-8,18-8h10c0,0,8,6,12,2s18-10,18-6
					s24.1,8,24.1,8s12-2,16,2s4-10,16-6s12,8,20,4s24,0,24,0s18,2,24-4s12,4,12,4l20,20.1l-32.1,18l-112.2,4l-92.2-4L263.9,177.3z"
					/>
			</defs>
			<clipPath id="SVGID_00000083785910866572277160000012047263166560829321_">
				<use xlink:href="#SVGID_00000033369474086123992020000010504622648517376135_"  style="overflow:visible;"/>
			</clipPath>
			<g style="clip-path:url(#SVGID_00000083785910866572277160000012047263166560829321_);">
				<path class="st15" d="M268.5,194.3v-39.3h20.7c2.4,0,4.8,0.5,6.9,1.6c2,1.1,3.6,2.6,4.7,4.5c1.2,2,1.8,4.3,1.7,6.6
					c0,2.2-0.6,4.5-1.7,6.4c-1.2,1.9-2.8,3.4-4.8,4.5c-2.1,1.1-4.5,1.7-6.9,1.6h-11v14.1L268.5,194.3z M278.2,172.3h9.9
					c1.3,0.1,2.5-0.4,3.4-1.2c0.9-0.8,1.3-2,1.3-3.2c0-1.2-0.4-2.4-1.3-3.3c-0.9-0.9-2.2-1.3-3.4-1.3h-9.9V172.3z"/>
				<path class="st15" d="M278.9,195.1h-11.2v-40.8h21.5c2.5,0,5,0.6,7.2,1.8c2.1,1.1,3.8,2.8,5,4.8c1.3,2.1,1.9,4.5,1.9,6.9
					c0,2.4-0.6,4.7-1.9,6.8c-1.2,2-3,3.6-5,4.7c-2.2,1.2-4.7,1.8-7.2,1.7h-10.3L278.9,195.1z M269.3,193.6h8.1v-14.1h11.8
					c2.3,0,4.5-0.5,6.5-1.5c1.8-1,3.4-2.4,4.5-4.2c1.1-1.8,1.7-3.9,1.6-6c0.1-4.3-2.3-8.4-6.1-10.4c-2-1.1-4.2-1.6-6.5-1.6h-20
					V193.6z M288.1,173h-10.7v-10.5h10.7c1.5-0.1,2.9,0.5,4,1.5c1,1,1.6,2.4,1.5,3.8c0,1.4-0.5,2.8-1.5,3.7
					C291,172.6,289.6,173.1,288.1,173z M278.9,171.5h9.2c1.1,0.1,2.1-0.3,2.9-1c0.7-0.7,1.1-1.7,1.1-2.7c0.1-1-0.3-2-1-2.7
					c-0.8-0.7-1.8-1.1-2.9-1.1h-9.2L278.9,171.5z"/>
				<path class="st15" d="M307.9,194.3v-39.3h9.6v30.8h20.7v8.5H307.9z"/>
				<path class="st15" d="M339,195.1h-31.9v-40.8h11.2V185H339V195.1z M308.6,193.6h28.9v-7h-20.8v-30.8h-8.1L308.6,193.6z"/>
				<path class="st15" d="M341.5,194.3l16.1-39.3h11.1l15.9,39.3h-10.4l-3.6-9.5h-15.3l-3.6,9.5H341.5z M358.1,177.2h9.5l-4.7-12.6
					L358.1,177.2z"/>
				<path class="st15" d="M385.6,195.1h-12.1l-3.5-9.5h-14.3l-3.7,9.5h-11.7l16.7-40.8h12.1L385.6,195.1z M374.6,193.6h8.8
					l-15.3-37.8h-10l-15.5,37.8h8.4l3.6-9.5H371L374.6,193.6z M368.7,177.9H357l5.9-15.4L368.7,177.9z M359.2,176.4h7.4l-3.6-9.7
					L359.2,176.4z"/>
				<path class="st15" d="M405.4,194.9c-2.8,0-5.7-0.5-8.3-1.5c-2.5-1-4.8-2.4-6.7-4.3c-3.9-3.7-6.1-8.9-6.1-14.4
					c0-2.7,0.5-5.5,1.6-8c1-2.4,2.6-4.6,4.5-6.4c2-1.8,4.2-3.3,6.7-4.3c4.7-1.8,9.9-2,14.7-0.6c2.1,0.6,4,1.5,5.8,2.7
					c1.7,1.1,3.2,2.5,4.5,4.1l-6.5,6.4c-1.2-1.6-2.8-3-4.6-3.9c-1.7-0.9-3.6-1.3-5.5-1.3c-1.5,0-3,0.3-4.4,0.9
					c-1.3,0.6-2.5,1.4-3.6,2.4c-1,1-1.8,2.2-2.4,3.6c-0.6,1.4-0.9,3-0.9,4.6c0,3,1.2,5.9,3.3,8.1c1,1,2.3,1.8,3.6,2.4
					c1.5,0.6,3,0.9,4.6,0.8c1.8,0,3.7-0.4,5.3-1.2c1.7-0.9,3.2-2.1,4.4-3.6l6.3,6.2c-1.2,1.6-2.7,2.9-4.4,4c-1.8,1.1-3.7,2-5.7,2.6
					C409.6,194.6,407.5,194.9,405.4,194.9z"/>
				<path class="st15" d="M405.4,195.6c-2.9,0-5.9-0.5-8.6-1.6c-2.6-1-4.9-2.5-7-4.4c-6.2-6.1-8-15.3-4.6-23.2
					c1.1-2.5,2.7-4.8,4.7-6.7c2-1.9,4.4-3.4,7-4.4c4.8-1.9,10.2-2.1,15.2-0.6c2.1,0.6,4.1,1.6,6,2.8c1.8,1.1,3.4,2.6,4.7,4.2
					l0.4,0.5l-7.6,7.4L415,169c-1.2-1.5-2.7-2.8-4.4-3.7c-2.9-1.5-6.3-1.6-9.3-0.4c-1.2,0.5-2.4,1.3-3.3,2.2c-0.9,1-1.7,2.1-2.2,3.3
					c-0.5,1.4-0.8,2.8-0.8,4.3c0,1.4,0.3,2.8,0.8,4.2c0.5,1.3,1.3,2.4,2.2,3.4c1,1,2.1,1.7,3.4,2.2c3,1.2,6.4,1,9.3-0.4
					c1.6-0.8,3-2,4.2-3.4l0.5-0.6l7.4,7.3l-0.4,0.5c-1.3,1.6-2.9,3.1-4.6,4.2c-1.8,1.2-3.8,2.1-5.9,2.7
					C409.8,195.3,407.6,195.6,405.4,195.6z M405.4,155.2c-2.7,0-5.5,0.5-8,1.5c-2.4,0.9-4.6,2.4-6.5,4.1c-1.8,1.7-3.3,3.9-4.3,6.2
					c-3.2,7.4-1.5,15.9,4.3,21.5c1.9,1.8,4.1,3.2,6.5,4.1c6.5,2.5,13.8,1.8,19.6-2c1.4-0.9,2.7-2,3.8-3.3l-5.3-5.2
					c-1.2,1.3-2.6,2.4-4.1,3.2c-3.3,1.6-7.1,1.7-10.5,0.4c-1.5-0.6-2.8-1.4-3.9-2.6c-2.3-2.3-3.5-5.4-3.5-8.6c0-1.7,0.3-3.3,0.9-4.8
					c0.6-1.4,1.4-2.7,2.5-3.8c1.1-1.1,2.4-1.9,3.8-2.6c3.4-1.4,7.3-1.2,10.6,0.4c1.7,0.9,3.1,2.1,4.4,3.5l5.4-5.4
					c-1.1-1.3-2.4-2.5-3.9-3.4c-1.7-1.1-3.6-2-5.6-2.6C409.5,155.5,407.5,155.2,405.4,155.2z"/>
				<path class="st15" d="M426.2,194.3v-39.3h31v8.4h-21.3v7.1h14.1v8.1h-14.1v7.4h21.5v8.4L426.2,194.3z"/>
				<path class="st15" d="M458.2,195.1h-32.7v-40.8h32.5v9.9h-21.3v5.6h14.1v9.6h-14.1v5.9h21.5L458.2,195.1z M427,193.6h29.7v-6.9
					h-21.6v-8.9h14.1v-6.6h-14.1v-8.6h21.3v-6.9H427V193.6z"/>
			</g>
		</g>
	</g>
</g>
</svg>
