<svg xmlns="http://www.w3.org/2000/svg" xmlns:xlink="http://www.w3.org/1999/xlink" viewBox="0 0 462.82 223.77"><defs><style>.cls-1{fill:none;}.cls-2{fill:url(#linear-gradient);}.cls-3{fill:url(#linear-gradient-2);}.cls-4{fill:url(#linear-gradient-3);}.cls-5{clip-path:url(#clip-path);}.cls-6{fill:url(#linear-gradient-4);}.cls-7{clip-path:url(#clip-path-2);}.cls-8{fill:url(#linear-gradient-6);}.cls-9{clip-path:url(#clip-path-3);}.cls-10{fill:url(#linear-gradient-7);}.cls-11{fill:url(#linear-gradient-8);}.cls-12{fill:#fff;}.cls-13{fill:url(#linear-gradient-9);}.cls-14{fill:url(#linear-gradient-10);}.cls-15{fill:url(#linear-gradient-11);}.cls-16{clip-path:url(#clip-path-4);}.cls-17{fill:#ff3661;}</style><linearGradient id="linear-gradient" x1="136.54" y1="148.43" x2="173.29" y2="148.43" gradientUnits="userSpaceOnUse"><stop offset="0.02" stop-color="#fcba30"/><stop offset="1" stop-color="#ff3661"/></linearGradient><linearGradient id="linear-gradient-2" x1="207.89" y1="81.29" x2="285.77" y2="81.29" gradientUnits="userSpaceOnUse"><stop offset="0" stop-color="#9eedff"/><stop offset="0.32" stop-color="#9eedff"/><stop offset="0.96" stop-color="#afc6e9"/><stop offset="1" stop-color="#afc6e9"/></linearGradient><linearGradient id="linear-gradient-3" x1="293.84" y1="80.68" x2="370.86" y2="80.68" xlink:href="#linear-gradient-2"/><clipPath id="clip-path"><path class="cls-1" d="M49.94,21.37A98.78,98.78,0,0,0,172.65,176.2c1.79-1.42,3.52-2.89,5.21-4.43V103.3a1.82,1.82,0,0,0-1.84-1.81,1.88,1.88,0,0,0-1.27.52l-31.7,36.45a7.27,7.27,0,0,1-10.28.71,7.93,7.93,0,0,1-.71-.71L100.34,102a1.81,1.81,0,0,0-3.1,1.29V174c-19.79,0-35.84-13.18-35.84-33V38.26a9.2,9.2,0,0,1,9.18-9.2,18.24,18.24,0,0,1,12.89,5.35l51.38,53.46a3.65,3.65,0,0,0,5.15.25,3,3,0,0,0,.25-.25l48.46-50.44A98.77,98.77,0,0,0,49.94,21.37"/></clipPath><linearGradient id="linear-gradient-4" x1="-80.75" y1="282.61" x2="-79.92" y2="282.61" gradientTransform="translate(17127.23 -67054.36) scale(211.93 237.64)" xlink:href="#linear-gradient-2"/><clipPath id="clip-path-2"><path class="cls-2" d="M146.48,141.46a11.86,11.86,0,0,1-8.95,4.08c-.35,0-.66-.08-1-.11a142.94,142.94,0,0,1,9.87,40.77,94.2,94.2,0,0,0,26.88-16.47V110.66Z"/></clipPath><linearGradient id="linear-gradient-6" x1="-74.71" y1="287.98" x2="-73.88" y2="287.98" gradientTransform="matrix(-32.09, 59.61, -29, -65.97, 6122.6, 23570.61)" xlink:href="#linear-gradient"/><clipPath id="clip-path-3"><path class="cls-1" d="M111.3,4.55A94.3,94.3,0,0,0,27.69,55.41,143.62,143.62,0,0,1,56.8,64.25v-26A13.79,13.79,0,0,1,70.59,24.48a23,23,0,0,1,16.2,6.76l50.78,52.83,45-46.87a93.74,93.74,0,0,0-71.1-32.65h-.21"/></clipPath><linearGradient id="linear-gradient-7" x1="-80.95" y1="282.41" x2="-80.11" y2="282.41" gradientTransform="translate(15111.15 -26966.96) scale(186.34 95.65)" gradientUnits="userSpaceOnUse"><stop offset="0" stop-color="#dcfaff"/><stop offset="0.32" stop-color="#dcfaff"/><stop offset="0.97" stop-color="#fdffff"/><stop offset="1" stop-color="#fdffff"/></linearGradient><linearGradient id="linear-gradient-8" x1="208.13" y1="-1697.49" x2="285.57" y2="-1697.49" gradientTransform="matrix(1, 0, 0, -0.29, 0, -312.74)" xlink:href="#linear-gradient"/><linearGradient id="linear-gradient-9" x1="413.94" y1="147.64" x2="424.13" y2="147.64" xlink:href="#linear-gradient-2"/><linearGradient id="linear-gradient-10" x1="395.31" y1="-14.99" x2="486.76" y2="-14.99" gradientTransform="translate(-15.51 -6.51) rotate(13.34)" xlink:href="#linear-gradient-2"/><linearGradient id="linear-gradient-11" x1="418.97" y1="141.01" x2="419.09" y2="131.16" gradientUnits="userSpaceOnUse"><stop offset="0" stop-color="#a8d7f3"/><stop offset="0.09" stop-color="#a3d1ec" stop-opacity="0.97"/><stop offset="0.22" stop-color="#96c0d9" stop-opacity="0.89"/><stop offset="0.38" stop-color="#80a4b9" stop-opacity="0.76"/><stop offset="0.56" stop-color="#617c8d" stop-opacity="0.58"/><stop offset="0.75" stop-color="#3a4a54" stop-opacity="0.35"/><stop offset="0.96" stop-color="#0b0e10" stop-opacity="0.07"/><stop offset="1" stop-opacity="0"/></linearGradient><clipPath id="clip-path-4"><path class="cls-1" d="M300.85,170.06s8.15-2,14.26,4.07,38.72,6.12,40.76,2,20.38-8.15,24.45-6.11,4.08-10.19,20.38-2,34.64-8.15,34.64-8.15S458,151.82,458.9,162s15.16,14.21,15.16,14.21,18.34,22.42,16.3,26.49-79.47,24.45-85.59,26.49-85.58-4.07-85.58-4.07l-32.6-22.42Z"/></clipPath></defs><title>Asset 2</title><g id="Layer_2" data-name="Layer 2"><g id="Layer_1-2" data-name="Layer 1"><path class="cls-3" d="M246.77,124.7q-11.86,0-20.6-4.71a32.88,32.88,0,0,1-13.51-13.39q-4.77-8.67-4.77-20.41V37.89h21v48.3a22,22,0,0,0,2.2,10.08,15.51,15.51,0,0,0,6.3,6.67,18.93,18.93,0,0,0,9.47,2.32,18.55,18.55,0,0,0,9.48-2.32,15.83,15.83,0,0,0,6.17-6.67,22,22,0,0,0,2.2-10.08V37.89h21v48.3a41.06,41.06,0,0,1-4.83,20.29,33.66,33.66,0,0,1-13.57,13.45Q258.63,124.7,246.77,124.7Z"/><path class="cls-4" d="M321.84,123.48v-67h-28V37.89h77V56.48h-28v67Z"/><g class="cls-5"><rect class="cls-6" width="188.71" height="210.08"/></g><path class="cls-2" d="M146.48,141.46a11.86,11.86,0,0,1-8.95,4.08c-.35,0-.66-.08-1-.11a142.94,142.94,0,0,1,9.87,40.77,94.2,94.2,0,0,0,26.88-16.47V110.66Z"/><g class="cls-7"><polygon class="cls-8" points="156.77 73.08 118.26 144.61 153.06 223.77 191.57 152.24 156.77 73.08"/></g><g class="cls-9"><rect class="cls-10" x="27.69" y="4.55" width="154.92" height="79.52"/></g><rect class="cls-11" x="208.13" y="170.16" width="77.43" height="2.04"/><path class="cls-12" d="M316.89,184.71V143.87H303v53.58h40.71V184.71ZM342.26,196H304.39V145.3h11.07v40.84h26.8Z"/><path class="cls-12" d="M379.59,155.2l-7.28,19.46h14.41Zm0,4.1,5.09,13.94H374.37Zm0-4.1-7.28,19.46h14.41Zm0,4.1,5.09,13.94H374.37Zm7.9-15.43H372.21l-21.44,53.58h14.57l4.71-12.58H388.9l4.65,12.58H408.6Zm2.41,39.58H369.07L364.34,196H352.89l20.28-50.72h13.35l20,50.72h-12Zm-17.59-8.79h14.41l-7.13-19.46Zm2.06-1.42,5.22-13.94,5.09,13.94Z"/><path class="cls-12" d="M445.59,155.94a7.15,7.15,0,0,0-4.83-1.55H428.13v11.69h12.63a7.08,7.08,0,0,0,4.83-1.58,5.92,5.92,0,0,0,0-8.56Zm-.94,7.5a5.77,5.77,0,0,1-3.89,1.22H429.55v-8.85h11.21a5.72,5.72,0,0,1,3.89,1.21,3.93,3.93,0,0,1,1.35,3.22A4.12,4.12,0,0,1,444.65,163.44Zm2.28,12.73a7.4,7.4,0,0,0-5.09-1.67H428.13V187h13.71a7.5,7.5,0,0,0,5.09-1.67,6.27,6.27,0,0,0,0-9.11Zm-.93,8a6.13,6.13,0,0,1-4.16,1.32H429.55v-9.59h12.29a6.12,6.12,0,0,1,4.16,1.3,4.94,4.94,0,0,1,0,7Zm.93-8a7.4,7.4,0,0,0-5.09-1.67H428.13V187h13.71a7.5,7.5,0,0,0,5.09-1.67,6.27,6.27,0,0,0,0-9.11Zm-.93,8a6.13,6.13,0,0,1-4.16,1.32H429.55v-9.59h12.29a6.12,6.12,0,0,1,4.16,1.3,4.94,4.94,0,0,1,0,7Zm-.41-19.7a5.92,5.92,0,0,0,0-8.56,7.15,7.15,0,0,0-4.83-1.55H428.13v11.69h12.63A7.08,7.08,0,0,0,445.59,164.5Zm-16-8.69h11.21a5.72,5.72,0,0,1,3.89,1.21,3.93,3.93,0,0,1,1.35,3.22,4.12,4.12,0,0,1-1.35,3.2,5.77,5.77,0,0,1-3.89,1.22H429.55Zm29.85,18.63a15.46,15.46,0,0,0-4.72-4.52,15.5,15.5,0,0,0,3.58-4.3,12.84,12.84,0,0,0,1.65-6.36,14.07,14.07,0,0,0-2.36-8,15.79,15.79,0,0,0-6.5-5.42,22.2,22.2,0,0,0-9.5-1.94H424.48a5.68,5.68,0,0,1,.73,1.43h16.34a20.93,20.93,0,0,1,8.89,1.79,14.75,14.75,0,0,1,5.93,4.93,12.76,12.76,0,0,1,2.12,7.24,11.41,11.41,0,0,1-1.47,5.66,13.91,13.91,0,0,1-4,4.49l-.92.67,1,.53a14.42,14.42,0,0,1,5.17,4.62,10.87,10.87,0,0,1,1.88,6.16A13.72,13.72,0,0,1,458,189a14.46,14.46,0,0,1-6,5.15A21,21,0,0,1,442.8,196H417.06V154a6.16,6.16,0,0,1-1.43-.65v44.14H442.8a22.65,22.65,0,0,0,9.74-2,15.74,15.74,0,0,0,6.62-5.67,15.06,15.06,0,0,0,2.36-8.39A12.26,12.26,0,0,0,459.4,174.44ZM428.13,187h13.71a7.5,7.5,0,0,0,5.09-1.67,6.27,6.27,0,0,0,0-9.11,7.4,7.4,0,0,0-5.09-1.67H428.13Zm1.42-11h12.29a6.12,6.12,0,0,1,4.16,1.3,4.94,4.94,0,0,1,0,7,6.13,6.13,0,0,1-4.16,1.32H429.55Zm17.87-15.69a5.41,5.41,0,0,0-1.83-4.3,7.15,7.15,0,0,0-4.83-1.55H428.13v11.69h12.63a7.08,7.08,0,0,0,4.83-1.58A5.46,5.46,0,0,0,447.42,160.24Zm-6.66,4.42H429.55v-8.85h11.21a5.72,5.72,0,0,1,3.89,1.21,3.93,3.93,0,0,1,1.35,3.22,4.12,4.12,0,0,1-1.35,3.2A5.77,5.77,0,0,1,440.76,164.66Z"/><circle class="cls-13" cx="419.04" cy="147.64" r="5.09"/><path class="cls-14" d="M462.17,73.6A43.86,43.86,0,0,0,456,57.67a44.84,44.84,0,0,0-12-12.51,49.73,49.73,0,0,0-35-8.3,44.86,44.86,0,0,0-16.33,5.8A43.79,43.79,0,0,0,380,54.1a44.76,44.76,0,0,0-8,33.67,43.59,43.59,0,0,0,6.22,15.92,44.56,44.56,0,0,0,12,12.52,47.63,47.63,0,0,0,16.71,7.42c1.67.4,3.33.69,5,.92l2.13.11a4.8,4.8,0,0,1,.13-1,5.08,5.08,0,0,1,10,1c.36,0,.71-.08,1-.13a44.56,44.56,0,0,0,16.32-5.8,43.67,43.67,0,0,0,12.71-11.44,44.69,44.69,0,0,0,8-33.66ZM436.46,95.39a23.91,23.91,0,0,1-43.31-10.26,27.54,27.54,0,0,1,4.56-19.22A24,24,0,0,1,441,76.18a26,26,0,0,1-.5,10.06A26.33,26.33,0,0,1,436.46,95.39Z"/><rect class="cls-15" x="418.88" y="128.29" width="0.31" height="14.26"/><g class="cls-16"><path class="cls-17" d="M303.67,196.74V144.59h12.5v40.83H343v11.32Z"/><path class="cls-17" d="M343.74,197.5H302.91V143.82h14v40.83h26.81ZM304.44,196h37.77v-9.8h-26.8V145.35h-11Z"/><path class="cls-17" d="M351.84,196.74l20.85-52.15H387l20.56,52.15H394.05l-4.65-12.59H369.56l-4.72,12.59Zm21.5-22.8h12.35l-6.1-16.69Z"/><path class="cls-17" d="M408.68,197.5H393.51l-4.65-12.59H370.09l-4.72,12.59H350.71l21.46-53.68h15.35ZM394.58,196h11.86l-20-50.63H373.2L353,196h11.34L369,183.39h20.9Zm-7.8-21.27H372.24l7.36-19.66Zm-12.34-1.53H384.6l-5-13.73Z"/><path class="cls-17" d="M416.35,196.74V144.59h25.21a21.42,21.42,0,0,1,9.19,1.86,15.11,15.11,0,0,1,6.21,5.18,13.25,13.25,0,0,1,2.25,7.63,12.1,12.1,0,0,1-1.56,6A14.53,14.53,0,0,1,453.4,170a15.15,15.15,0,0,1,5.41,4.85,11.52,11.52,0,0,1,2,6.55,14.3,14.3,0,0,1-2.26,8,15,15,0,0,1-6.31,5.4,21.65,21.65,0,0,1-9.45,1.94Zm12.49-31.37h11.92a6.37,6.37,0,0,0,4.36-1.41,5.21,5.21,0,0,0,0-7.49,6.46,6.46,0,0,0-4.36-1.38H428.84Zm0,20.87h13a6.75,6.75,0,0,0,4.61-1.5,5.58,5.58,0,0,0,0-8,6.8,6.8,0,0,0-4.61-1.49h-13Z"/><path class="cls-17" d="M442.79,197.5H415.58V143.82h26a22.13,22.13,0,0,1,9.51,1.94,15.9,15.9,0,0,1,6.52,5.44,14.08,14.08,0,0,1,2.38,8.06,12.86,12.86,0,0,1-1.66,6.37,15.34,15.34,0,0,1-3.55,4.28,15.61,15.61,0,0,1,4.68,4.5,12.27,12.27,0,0,1,2.13,7,15.25,15.25,0,0,1-2.37,8.43,15.86,15.86,0,0,1-6.64,5.67A22.5,22.5,0,0,1,442.79,197.5ZM417.11,196h25.68a21.07,21.07,0,0,0,9.12-1.87,14.32,14.32,0,0,0,6-5.12,13.66,13.66,0,0,0,2.14-7.6,10.76,10.76,0,0,0-1.88-6.13,14.35,14.35,0,0,0-5.14-4.6l-1.06-.58,1-.71a13.78,13.78,0,0,0,4-4.48,11.42,11.42,0,0,0,1.46-5.63,12.55,12.55,0,0,0-2.12-7.2,14.34,14.34,0,0,0-5.9-4.92,20.7,20.7,0,0,0-8.86-1.79H417.11Zm24.74-9H428.08V174.45h13.77a7.52,7.52,0,0,1,5.11,1.67,6.36,6.36,0,0,1,0,9.2A7.53,7.53,0,0,1,441.85,187Zm-12.24-1.53h12.24a6.1,6.1,0,0,0,4.11-1.3,4.85,4.85,0,0,0,0-6.9,6.08,6.08,0,0,0-4.11-1.3H429.61Zm11.15-19.33H428.08V154.33h12.68a7.17,7.17,0,0,1,4.85,1.56,5.94,5.94,0,0,1,0,8.64A7.07,7.07,0,0,1,440.76,166.14Zm-11.15-1.53h11.15a5.64,5.64,0,0,0,3.85-1.22,4.43,4.43,0,0,0,0-6.34,5.77,5.77,0,0,0-3.86-1.19H429.61Z"/></g></g></g></svg>