<svg xmlns="http://www.w3.org/2000/svg" xmlns:xlink="http://www.w3.org/1999/xlink" viewBox="0 0 383.9 185.16"><defs><style>.cls-1{fill:none;}.cls-2{fill:url(#linear-gradient);}.cls-3{fill:url(#linear-gradient-2);}.cls-4{fill:url(#linear-gradient-3);}.cls-5{clip-path:url(#clip-path);}.cls-6{fill:url(#linear-gradient-4);}.cls-7{clip-path:url(#clip-path-2);}.cls-8{fill:url(#linear-gradient-6);}.cls-9{clip-path:url(#clip-path-3);}.cls-10{fill:url(#linear-gradient-7);}.cls-11{fill:url(#linear-gradient-8);}.cls-12{fill:#fff;}.cls-13{fill:url(#linear-gradient-9);}.cls-14{fill:url(#linear-gradient-10);}.cls-15{clip-path:url(#clip-path-4);}.cls-16{fill:#ff6ce3;}</style><linearGradient id="linear-gradient" x1="112.98" y1="122.82" x2="143.39" y2="122.82" gradientUnits="userSpaceOnUse"><stop offset="0.02" stop-color="#fcba30"/><stop offset="1" stop-color="#ff3661"/></linearGradient><linearGradient id="linear-gradient-2" x1="172.02" y1="67.27" x2="236.46" y2="67.27" gradientUnits="userSpaceOnUse"><stop offset="0" stop-color="#9eedff"/><stop offset="0.32" stop-color="#9eedff"/><stop offset="0.96" stop-color="#afc6e9"/><stop offset="1" stop-color="#afc6e9"/></linearGradient><linearGradient id="linear-gradient-3" x1="243.14" y1="66.76" x2="306.87" y2="66.76" xlink:href="#linear-gradient-2"/><clipPath id="clip-path"><path class="cls-1" d="M41.33,17.68A81.74,81.74,0,0,0,142.86,145.8c1.48-1.17,2.92-2.4,4.31-3.67V85.48a1.51,1.51,0,0,0-1.52-1.5,1.53,1.53,0,0,0-1.05.43l-26.23,30.16a6,6,0,0,1-8.51.59,6.57,6.57,0,0,1-.59-.59L83,84.41a1.51,1.51,0,0,0-2.56,1.07v58.45c-16.38,0-29.66-10.9-29.66-27.27v-85a7.61,7.61,0,0,1,7.6-7.61,15.09,15.09,0,0,1,10.67,4.42l42.51,44.24a3,3,0,0,0,4.26.2l.21-.2L156.15,31A81.72,81.72,0,0,0,41.33,17.68"/></clipPath><linearGradient id="linear-gradient-4" x1="-1095.35" y1="507.78" x2="-1094.67" y2="507.78" gradientTransform="translate(232153.07 -120580.55) scale(211.93 237.64)" xlink:href="#linear-gradient-2"/><clipPath id="clip-path-2"><path class="cls-2" d="M121.21,117.06a9.84,9.84,0,0,1-7.41,3.37c-.29,0-.54-.07-.82-.09a118.12,118.12,0,0,1,8.17,33.73,77.79,77.79,0,0,0,22.24-13.63V91.56Z"/></clipPath><linearGradient id="linear-gradient-6" x1="-1112.95" y1="500.89" x2="-1112.27" y2="500.89" gradientTransform="matrix(-32.09, 59.61, -29, -65.97, -21050.2, 99480.49)" xlink:href="#linear-gradient"/><clipPath id="clip-path-3"><path class="cls-1" d="M92.1,3.77A78,78,0,0,0,22.91,45.85,118.37,118.37,0,0,1,47,53.17V31.66A11.41,11.41,0,0,1,58.41,20.25a19,19,0,0,1,13.4,5.6l42,43.71L151.1,30.78a77.56,77.56,0,0,0-58.83-27H92.1"/></clipPath><linearGradient id="linear-gradient-7" x1="-1094.9" y1="506.16" x2="-1094.21" y2="506.16" gradientTransform="translate(204046.3 -48375.59) scale(186.34 95.65)" gradientUnits="userSpaceOnUse"><stop offset="0" stop-color="#dcfaff"/><stop offset="0.32" stop-color="#dcfaff"/><stop offset="0.97" stop-color="#fdffff"/><stop offset="1" stop-color="#fdffff"/></linearGradient><linearGradient id="linear-gradient-8" x1="250.26" y1="-241.05" x2="325.93" y2="-241.05" gradientTransform="translate(9.17 234.83) rotate(13.34)" xlink:href="#linear-gradient-2"/><linearGradient id="linear-gradient-9" x1="346.61" y1="128.15" x2="346.83" y2="110.22" gradientUnits="userSpaceOnUse"><stop offset="0" stop-color="#a8d7f3"/><stop offset="0.09" stop-color="#a3d1ec" stop-opacity="0.97"/><stop offset="0.22" stop-color="#96c0d9" stop-opacity="0.89"/><stop offset="0.38" stop-color="#80a4b9" stop-opacity="0.76"/><stop offset="0.56" stop-color="#617c8d" stop-opacity="0.58"/><stop offset="0.75" stop-color="#3a4a54" stop-opacity="0.35"/><stop offset="0.96" stop-color="#0b0e10" stop-opacity="0.07"/><stop offset="1" stop-opacity="0"/></linearGradient><linearGradient id="linear-gradient-10" x1="342.52" y1="135.17" x2="350.95" y2="135.17" xlink:href="#linear-gradient-2"/><clipPath id="clip-path-4"><path class="cls-1" d="M170.62,152.48s8-8,15-6,13,6,14,4,11-6,15-1,13,4,15,1,12,1,12,1,10-5,16-5,13,5,15,3,11-3,14,0,11-2,11-2l5-1s8,0,9,6,11-11,18-4,14,9,15,8,15-3,15,0,9,0,11-1,15-3,17,0,4,17,4,17l-227,15Z"/></clipPath></defs><title>Asset 1</title><g id="Layer_2" data-name="Layer 2"><g id="Layer_1-2" data-name="Layer 1"><path class="cls-3" d="M204.19,103.18a35.53,35.53,0,0,1-17.05-3.89A27.25,27.25,0,0,1,176,88.21,34.57,34.57,0,0,1,172,71.31v-40h17.4v40a18.24,18.24,0,0,0,1.82,8.35,12.79,12.79,0,0,0,5.21,5.51,15.53,15.53,0,0,0,7.84,1.93,15.17,15.17,0,0,0,7.84-1.93,13,13,0,0,0,5.11-5.51,18.24,18.24,0,0,0,1.82-8.35v-40h17.4v40a34,34,0,0,1-4,16.8,27.91,27.91,0,0,1-11.23,11.13A35.11,35.11,0,0,1,204.19,103.18Z"/><path class="cls-4" d="M266.31,102.17V46.73H243.14V31.35h63.73V46.73H283.71v55.44Z"/><g class="cls-5"><rect class="cls-6" width="156.15" height="173.83"/></g><path class="cls-2" d="M121.21,117.06a9.84,9.84,0,0,1-7.41,3.37c-.29,0-.54-.07-.82-.09a118.12,118.12,0,0,1,8.17,33.73,77.79,77.79,0,0,0,22.24-13.63V91.56Z"/><g class="cls-7"><polygon class="cls-8" points="129.72 60.47 97.86 119.66 126.65 185.16 158.51 125.97 129.72 60.47"/></g><g class="cls-9"><rect class="cls-10" x="22.91" y="3.77" width="128.19" height="65.8"/></g><path class="cls-11" d="M382.43,60.9a36.29,36.29,0,0,0-5.15-13.18,36.94,36.94,0,0,0-9.91-10.35,41.18,41.18,0,0,0-28.94-6.87,37.13,37.13,0,0,0-13.51,4.8,36.15,36.15,0,0,0-10.51,9.47,37,37,0,0,0-6.61,27.86,36.05,36.05,0,0,0,5.14,13.17,37,37,0,0,0,9.92,10.36,39.31,39.31,0,0,0,13.82,6.14c1.39.33,2.76.57,4.12.76l1.77.09a3.93,3.93,0,0,1,.11-.82,4.2,4.2,0,0,1,8.29.79c.3,0,.59-.06.83-.1a36.83,36.83,0,0,0,13.51-4.8,36.12,36.12,0,0,0,10.51-9.46,37,37,0,0,0,6.61-27.86Zm-21.28,18a19.59,19.59,0,0,1-5.59,5.39A19.85,19.85,0,0,1,348.41,87a19.69,19.69,0,0,1-23.09-16.6,22.7,22.7,0,0,1,3.77-15.9,20.07,20.07,0,0,1,28.08-4.41A19.39,19.39,0,0,1,364.92,63a22.8,22.8,0,0,1-3.77,15.89Z"/><path class="cls-12" d="M193.52,164.35h-21.6v-27h21.45v6.34H179.12v4h9.41v6.15h-9.41V158h14.4Zm-20.85-.75h20.1v-4.83h-14.4v-5.7h9.41v-4.65h-9.41v-5.48h14.25V138.1h-20Z"/><path class="cls-12" d="M222.88,164.35h-8.63l-6.07-8.5-6,8.5h-8.32L204,150.44l-9.77-13.09h8.63l5.43,7.64,5.43-7.64h8.32l-9.61,13.09Zm-8.24-.75h6.74l-9.84-13.16,9.06-12.34h-6.45l-5.82,8.19-5.82-8.19h-6.74l9.2,12.34-9.66,13.16h6.45l6.42-9Z"/><path class="cls-12" d="M234.43,164.73a15.3,15.3,0,0,1-5.71-1.06,14.07,14.07,0,0,1-4.6-2.95,13.56,13.56,0,0,1-4.17-9.87,13.54,13.54,0,0,1,1.11-5.49,13.31,13.31,0,0,1,3.08-4.41,14.37,14.37,0,0,1,4.62-2.95,15.21,15.21,0,0,1,5.67-1.06,14.86,14.86,0,0,1,4.38.66,15.65,15.65,0,0,1,4,1.82,11.84,11.84,0,0,1,3.07,2.81l.21.26-4.89,4.8-.26-.33a9,9,0,0,0-3-2.52,7.66,7.66,0,0,0-3.52-.82,7.1,7.1,0,0,0-5.06,2.06,6.68,6.68,0,0,0-1.49,2.28,7.55,7.55,0,0,0-.54,2.89,7.05,7.05,0,0,0,2.09,5.12,6.62,6.62,0,0,0,2.31,1.51,7.73,7.73,0,0,0,2.91.54,7.44,7.44,0,0,0,3.38-.79,8.8,8.8,0,0,0,2.82-2.34l.26-.32,4.77,4.69-.2.26a12.36,12.36,0,0,1-3.06,2.77,15.55,15.55,0,0,1-3.92,1.81A14.87,14.87,0,0,1,234.43,164.73Zm0-27a14.32,14.32,0,0,0-5.39,1,13.49,13.49,0,0,0-4.38,2.79,12.68,12.68,0,0,0-2.92,4.17,13,13,0,0,0,2.9,14.52A13.29,13.29,0,0,0,229,163a14.5,14.5,0,0,0,13.21-1.31,11.61,11.61,0,0,0,2.66-2.34l-3.7-3.64a9.24,9.24,0,0,1-2.8,2.22,8.11,8.11,0,0,1-3.72.87,8.58,8.58,0,0,1-3.19-.59,7.6,7.6,0,0,1-2.56-1.68,7.82,7.82,0,0,1-2.31-5.65,8.4,8.4,0,0,1,.59-3.17,7.52,7.52,0,0,1,1.66-2.53,7.94,7.94,0,0,1,2.5-1.67,7.75,7.75,0,0,1,3.09-.61,8.43,8.43,0,0,1,3.86.9,9.47,9.47,0,0,1,3,2.4l3.82-3.75a11.42,11.42,0,0,0-2.69-2.37,15.49,15.49,0,0,0-3.78-1.74A14.48,14.48,0,0,0,234.43,137.69Z"/><path class="cls-12" d="M272.19,164.35H265V154.08H254.94v10.27h-7.2v-27h7.2v10.09H265V137.35h7.2Zm-6.45-.75h5.7V138.1h-5.7v10.09H254.19V138.1h-5.7v25.5h5.7V153.33h11.55Z"/><path class="cls-12" d="M303.05,164.35h-7.79l-2.4-6.33h-9.72l-2.44,6.33h-7.53l11.07-27h7.89Zm-7.27-.75h6.16l-10.31-25.5h-6.89l-10.45,25.5h5.89l2.44-6.33h10.76Zm-4-10.72h-7.47l3.78-9.83Zm-6.37-.75h5.28l-2.61-7Z"/><path class="cls-12" d="M328.85,164.35H322.6l-11.75-15.1v15.1H304v-27h6.63L322,151.87V137.35h6.82ZM323,163.6h5.14V138.1h-5.32V154L310.3,138.1h-5.52v25.5h5.32V147.06Z"/><path class="cls-12" d="M344.83,148.46v6.33h6.92a5,5,0,0,1-1,1.51,6.11,6.11,0,0,1-2,1.37,7.49,7.49,0,0,1-5.49,0,7.28,7.28,0,0,1-2.28-1.54,6.76,6.76,0,0,1-1.51-2.31,7.92,7.92,0,0,1-.53-2.91,8,8,0,0,1,.51-2.91,7,7,0,0,1,1.46-2.27,6.86,6.86,0,0,1,5-2.06,7.81,7.81,0,0,1,3.49.78,8.19,8.19,0,0,1,2.82,2.37l.24.32,5.1-4.59-.21-.28a13.33,13.33,0,0,0-5-3.87c-.18-.09-.37-.17-.55-.24a4.38,4.38,0,0,1-.43.63l.67.29a12.79,12.79,0,0,1,4.48,3.38l-4,3.59a8.76,8.76,0,0,0-2.82-2.27,8.61,8.61,0,0,0-3.83-.86,7.52,7.52,0,0,0-3,.61,8,8,0,0,0-2.45,1.67,7.55,7.55,0,0,0-1.61,2.53,9.11,9.11,0,0,0,0,6.37,7.7,7.7,0,0,0,1.68,2.56,8.06,8.06,0,0,0,2.52,1.7,8.27,8.27,0,0,0,6.07.05,6.59,6.59,0,0,0,2.28-1.55,5.62,5.62,0,0,0,1.36-2.28l.15-.49h-7.22v-4.83h13.31v1.5a14.33,14.33,0,0,1-1,5.31,12.92,12.92,0,0,1-2.7,4.23,11.93,11.93,0,0,1-4.09,2.78,13.32,13.32,0,0,1-5.18,1,14.23,14.23,0,0,1-5.38-1,13.61,13.61,0,0,1-4.36-2.81,13.12,13.12,0,0,1-2.91-14.5,13.06,13.06,0,0,1,7.2-7,12.66,12.66,0,0,1,1.31-.45,3.75,3.75,0,0,1-.37-.68c-.41.13-.82.27-1.22.43a13.86,13.86,0,0,0-7.61,7.4,13.7,13.7,0,0,0,3.08,15.34,14.38,14.38,0,0,0,4.6,3,15.08,15.08,0,0,0,5.66,1.06,14.16,14.16,0,0,0,5.46-1,12.87,12.87,0,0,0,4.35-3,13.61,13.61,0,0,0,2.85-4.47,15,15,0,0,0,1-5.59v-2.25Z"/><path class="cls-12" d="M383.9,164.35H362.3v-27h21.45v6.34H369.5v4h9.42v6.15H369.5V158h14.4Zm-20.85-.75h20.1v-4.83h-14.4v-5.7h9.42v-4.65h-9.42v-5.48H383V138.1H363.05Z"/><rect class="cls-13" x="346.61" y="104.98" width="0.25" height="25.97"/><circle class="cls-14" cx="346.73" cy="135.17" r="4.22"/><g class="cls-15"><path class="cls-16" d="M172.29,164V137.73H193v5.59H178.74V148h9.41v5.4h-9.41v4.95h14.4V164Z"/><path class="cls-16" d="M193.52,164.35h-21.6v-27h21.45v6.34H179.12v4h9.41v6.15h-9.41V158h14.4Zm-20.85-.75h20.1v-4.83h-14.4v-5.7h9.41v-4.65h-9.41v-5.48h14.25V138.1h-20Z"/><path class="cls-16" d="M194.57,164l9.94-13.54L195,137.73h7.69l5.62,7.91,5.63-7.91h7.38L212,150.44,222.13,164h-7.69l-6.26-8.78L202,164Z"/><path class="cls-16" d="M222.88,164.35h-8.63l-6.07-8.5-6,8.5h-8.32L204,150.44l-9.77-13.09h8.63l5.43,7.64,5.43-7.64h8.32l-9.61,13.09Zm-8.24-.75h6.74l-9.84-13.16,9.06-12.34h-6.45l-5.82,8.19-5.82-8.19h-6.74l9.2,12.34-9.66,13.16h6.45l6.42-9Z"/><path class="cls-16" d="M234.43,164.35a14.76,14.76,0,0,1-5.57-1,13.6,13.6,0,0,1-4.48-2.87,13.12,13.12,0,0,1-4-9.6,13.3,13.3,0,0,1,1.07-5.34,12.89,12.89,0,0,1,3-4.29,14.07,14.07,0,0,1,4.5-2.87,15.11,15.11,0,0,1,9.8-.4,15.32,15.32,0,0,1,3.89,1.79,11.59,11.59,0,0,1,3,2.71l-4.35,4.28a9.38,9.38,0,0,0-3.1-2.63,8.11,8.11,0,0,0-3.69-.86,7.56,7.56,0,0,0-2.94.58,7.28,7.28,0,0,0-2.38,1.6,6.92,6.92,0,0,0-1.58,2.4,7.86,7.86,0,0,0-.56,3,7.48,7.48,0,0,0,2.19,5.39,7.36,7.36,0,0,0,2.44,1.59,8.23,8.23,0,0,0,3.05.56,7.75,7.75,0,0,0,3.55-.82,9.09,9.09,0,0,0,2.94-2.44l4.24,4.16a11.93,11.93,0,0,1-3,2.68,14.85,14.85,0,0,1-3.83,1.77A14.45,14.45,0,0,1,234.43,164.35Z"/><path class="cls-16" d="M234.43,164.73a15.3,15.3,0,0,1-5.71-1.06,14.07,14.07,0,0,1-4.6-2.95,13.56,13.56,0,0,1-4.17-9.87,13.54,13.54,0,0,1,1.11-5.49,13.31,13.31,0,0,1,3.08-4.41,14.37,14.37,0,0,1,4.62-2.95,15.21,15.21,0,0,1,5.67-1.06,14.86,14.86,0,0,1,4.38.66,15.65,15.65,0,0,1,4,1.82,11.84,11.84,0,0,1,3.07,2.81l.21.26-4.89,4.8-.26-.33a9,9,0,0,0-3-2.52,7.66,7.66,0,0,0-3.52-.82,7.1,7.1,0,0,0-5.06,2.06,6.68,6.68,0,0,0-1.49,2.28,7.55,7.55,0,0,0-.54,2.89,7.05,7.05,0,0,0,2.09,5.12,6.62,6.62,0,0,0,2.31,1.51,7.73,7.73,0,0,0,2.91.54,7.44,7.44,0,0,0,3.38-.79,8.8,8.8,0,0,0,2.82-2.34l.26-.32,4.77,4.69-.2.26a12.36,12.36,0,0,1-3.06,2.77,15.55,15.55,0,0,1-3.92,1.81A14.87,14.87,0,0,1,234.43,164.73Zm0-27a14.32,14.32,0,0,0-5.39,1,13.49,13.49,0,0,0-4.38,2.79,12.68,12.68,0,0,0-2.92,4.17,13,13,0,0,0,2.9,14.52A13.29,13.29,0,0,0,229,163a14.5,14.5,0,0,0,13.21-1.31,11.61,11.61,0,0,0,2.66-2.34l-3.7-3.64a9.24,9.24,0,0,1-2.8,2.22,8.11,8.11,0,0,1-3.72.87,8.58,8.58,0,0,1-3.19-.59,7.6,7.6,0,0,1-2.56-1.68,7.82,7.82,0,0,1-2.31-5.65,8.4,8.4,0,0,1,.59-3.17,7.52,7.52,0,0,1,1.66-2.53,7.94,7.94,0,0,1,2.5-1.67,7.75,7.75,0,0,1,3.09-.61,8.43,8.43,0,0,1,3.86.9,9.47,9.47,0,0,1,3,2.4l3.82-3.75a11.42,11.42,0,0,0-2.69-2.37,15.49,15.49,0,0,0-3.78-1.74A14.48,14.48,0,0,0,234.43,137.69Z"/><path class="cls-16" d="M248.12,164V137.73h6.45v10.09h10.8V137.73h6.45V164h-6.45V153.7h-10.8V164Z"/><path class="cls-16" d="M272.19,164.35H265V154.08H254.94v10.27h-7.2v-27h7.2v10.09H265V137.35h7.2Zm-6.45-.75h5.7V138.1h-5.7v10.09H254.19V138.1h-5.7v25.5h5.7V153.33h11.55Z"/><path class="cls-16" d="M273.73,164l10.76-26.25h7.39L302.49,164h-7l-2.4-6.34H282.88L280.44,164Zm11.1-11.48h6.37l-3.15-8.4Z"/><path class="cls-16" d="M303.05,164.35h-7.79l-2.4-6.33h-9.72l-2.44,6.33h-7.53l11.07-27h7.89Zm-7.27-.75h6.16l-10.31-25.5h-6.89l-10.45,25.5h5.89l2.44-6.33h10.76Zm-4-10.72h-7.47l3.78-9.83Zm-6.37-.75h5.28l-2.61-7Z"/><path class="cls-16" d="M304.4,164V137.73h6.08L322.4,153V137.73h6.08V164h-5.7l-12.3-15.83V164Z"/><path class="cls-16" d="M328.85,164.35H322.6l-11.75-15.1v15.1H304v-27h6.63L322,151.87V137.35h6.82ZM323,163.6h5.14V138.1h-5.32V154L310.3,138.1h-5.52v25.5h5.32V147.06Z"/><path class="cls-16" d="M346,164.39a14.52,14.52,0,0,1-5.51-1,14,14,0,0,1-4.48-2.89,13.07,13.07,0,0,1-3-4.31,13.69,13.69,0,0,1,0-10.61,13.42,13.42,0,0,1,3-4.31,13.62,13.62,0,0,1,4.45-2.89,14.39,14.39,0,0,1,5.47-1,14.7,14.7,0,0,1,6.3,1.37,12.79,12.79,0,0,1,4.84,3.76l-4.54,4.09a8.46,8.46,0,0,0-2.94-2.47,8.13,8.13,0,0,0-3.66-.83,7.2,7.2,0,0,0-5.23,2.18,7.12,7.12,0,0,0-1.54,2.4,8.7,8.7,0,0,0,0,6.09,7.23,7.23,0,0,0,1.6,2.44,7.34,7.34,0,0,0,2.4,1.61,7.47,7.47,0,0,0,3,.58,7.19,7.19,0,0,0,2.79-.52,6.28,6.28,0,0,0,2.16-1.47,5.29,5.29,0,0,0,1.27-2.13H345.2v-5.59h14.07v1.87a14.46,14.46,0,0,1-1,5.46,13.3,13.3,0,0,1-2.77,4.35,12.45,12.45,0,0,1-4.22,2.87A13.86,13.86,0,0,1,346,164.39Z"/><path class="cls-16" d="M346,164.77a15.06,15.06,0,0,1-5.65-1.06,14.27,14.27,0,0,1-4.6-3,13.87,13.87,0,0,1-3.08-15.34,13.86,13.86,0,0,1,7.61-7.4,14.89,14.89,0,0,1,5.61-1.06,15.18,15.18,0,0,1,6.46,1.41,13.22,13.22,0,0,1,5,3.87l.22.28-5.1,4.59-.25-.32a8.16,8.16,0,0,0-2.81-2.37,7.81,7.81,0,0,0-3.49-.78,6.86,6.86,0,0,0-5,2.06,6.57,6.57,0,0,0-1.46,2.27,8,8,0,0,0-.52,2.9,7.74,7.74,0,0,0,.54,2.92,6.62,6.62,0,0,0,1.51,2.31,7.28,7.28,0,0,0,2.28,1.54,7.49,7.49,0,0,0,5.49,0,6,6,0,0,0,2-1.38,4.81,4.81,0,0,0,1-1.5h-6.92v-6.34h14.81v2.25a15,15,0,0,1-1,5.6,13.94,13.94,0,0,1-2.85,4.47,12.87,12.87,0,0,1-4.35,3A14.18,14.18,0,0,1,346,164.77Zm-.11-27.08a14,14,0,0,0-5.33,1,13.12,13.12,0,0,0-7.21,7,13.42,13.42,0,0,0,0,10.31,12.76,12.76,0,0,0,2.92,4.19,13.5,13.5,0,0,0,4.36,2.81,14.21,14.21,0,0,0,5.37,1,13.33,13.33,0,0,0,5.19-1,12,12,0,0,0,4.09-2.78,13.06,13.06,0,0,0,2.69-4.23,14.15,14.15,0,0,0,1-5.32v-1.5H345.58V154h7.22l-.15.49a5.86,5.86,0,0,1-1.36,2.28,6.77,6.77,0,0,1-2.29,1.55,8.24,8.24,0,0,1-6.06-.05,8,8,0,0,1-2.52-1.7,7.7,7.7,0,0,1-1.68-2.56,8.59,8.59,0,0,1-.59-3.2,8.8,8.8,0,0,1,.57-3.17,7.57,7.57,0,0,1,1.62-2.53,8,8,0,0,1,2.44-1.67,7.57,7.57,0,0,1,3.06-.61,8.33,8.33,0,0,1,6.64,3.13l4-3.59A12.61,12.61,0,0,0,352,139,14.44,14.44,0,0,0,345.84,137.69Z"/><path class="cls-16" d="M362.68,164V137.73h20.7v5.59H369.13V148h9.41v5.4h-9.41v4.95h14.4V164Z"/><path class="cls-16" d="M383.9,164.35H362.3v-27h21.45v6.34H369.5v4h9.42v6.15H369.5V158h14.4Zm-20.85-.75h20.1v-4.83h-14.4v-5.7h9.42v-4.65h-9.42v-5.48H383V138.1H363.05Z"/></g></g></g></svg>