<?xml version="1.0" encoding="utf-8"?>
<!-- Generator: Adobe Illustrator 27.0.0, SVG Export Plug-In . SVG Version: 6.00 Build 0)  -->
<svg version="1.1" id="Layer_1" xmlns="http://www.w3.org/2000/svg" xmlns:xlink="http://www.w3.org/1999/xlink" x="0px" y="0px"
	 viewBox="0 0 467.5 225" style="enable-background:new 0 0 467.5 225;" xml:space="preserve">
<style type="text/css">
	.st0{fill:#FFFFFF;}
	.st1{fill:url(#SVGID_1_);}
	.st2{fill:url(#SVGID_00000003090416887788017170000002286256680915848369_);}
	.st3{fill:url(#SVGID_00000024698638654841637950000013155945870895669912_);}
	.st4{clip-path:url(#SVGID_00000143600323728988032380000013075421968554433978_);}
	.st5{fill:url(#SVGID_00000151523276848134795940000005139235423038288811_);}
	.st6{fill:url(#SVGID_00000011718560742884058970000007939161510164974245_);}
	.st7{clip-path:url(#SVGID_00000049220644214923433640000006026240695015493762_);}
	.st8{fill:url(#SVGID_00000183930479308970105800000002574125431371008411_);}
	.st9{clip-path:url(#SVGID_00000012447052789876455270000008390871314604758415_);}
	.st10{fill:url(#SVGID_00000066493151736832910800000018168479879983564210_);}
	.st11{fill:url(#SVGID_00000010311708033151263070000012654850791392278967_);}
	.st12{fill:url(#SVGID_00000030464510891831754300000015292321871877327252_);}
	.st13{fill:url(#SVGID_00000014601294032370287400000015608787860419693193_);}
	.st14{clip-path:url(#SVGID_00000161591040376976901800000001331687155597734273_);}
	.st15{fill:#2D5CF5;}
</style>
<g id="Layer_2_00000162354610801747710020000001746859267902516359_">
	<g id="Layer_1-2">
		<path class="st0" d="M313.3,200.6H291V146h22.3c3.9,0,7.7,0.7,11.3,2.1c3.4,1.3,6.5,3.3,9.1,5.8c2.6,2.5,4.7,5.4,6.2,8.7
			c1.5,3.4,2.2,7.1,2.2,10.8c0,3.7-0.7,7.3-2.2,10.6c-1.5,3.3-3.6,6.2-6.2,8.6c-2.7,2.5-5.8,4.5-9.1,5.8
			C321,199.9,317.2,200.7,313.3,200.6z M292.6,199.1h20.8c3.7,0,7.3-0.7,10.7-2c3.2-1.3,6.1-3.1,8.7-5.5c2.5-2.3,4.4-5.1,5.8-8.1
			c1.4-3.1,2.1-6.6,2.1-10c0-3.5-0.7-7-2.1-10.1c-1.4-3.1-3.4-5.9-5.8-8.2c-2.5-2.4-5.5-4.2-8.7-5.5c-3.4-1.3-7-2-10.7-2h-20.8
			V199.1z M313,189.1h-9v-31.5h8.9c2.1,0,4.2,0.4,6.1,1.2c1.9,0.8,3.6,1.9,5,3.4c1.4,1.4,2.6,3.2,3.4,5.1c0.8,2,1.2,4.1,1.2,6.2
			c0,4.2-1.6,8.1-4.5,11.1C321.2,187.5,317.2,189.2,313,189.1L313,189.1z M305.6,187.6h7.4c7.7,0,14-6.2,14.1-13.9
			c0-0.1,0-0.1,0-0.2c0-1.9-0.4-3.9-1.1-5.7c-0.7-1.7-1.7-3.3-3-4.6c-1.3-1.3-2.8-2.3-4.5-3.1c-1.7-0.7-3.6-1.1-5.5-1.1h-7.4
			L305.6,187.6z"/>
		<path class="st0" d="M399.9,200.6h-15.8l-4.9-12.8h-19.6l-4.9,12.8h-15.2l22.4-54.6h16L399.9,200.6z M385.2,199.1h12.4l-20.8-51.5
			h-13.9l-21.1,51.5h11.9l4.9-12.8h21.8L385.2,199.1z M377.1,177.4H362l7.6-19.9L377.1,177.4z M364.2,175.9h10.7l-5.3-14
			L364.2,175.9z"/>
		
			<linearGradient id="SVGID_1_" gradientUnits="userSpaceOnUse" x1="209" y1="144.43" x2="287.3109" y2="144.43" gradientTransform="matrix(1 0 0 -1 0 226)">
			<stop  offset="0" style="stop-color:#9EEDFF"/>
			<stop  offset="0.32" style="stop-color:#9EEDFF"/>
			<stop  offset="0.95" style="stop-color:#AFC6E9"/>
			<stop  offset="1" style="stop-color:#AFC6E9"/>
		</linearGradient>
		<path class="st1" d="M248.1,125.2c-8,0-14.9-1.6-20.7-4.7c-5.8-3.1-10.5-7.7-13.6-13.5c-3.2-5.8-4.8-12.6-4.8-20.5V37.9h21.1v48.6
			c-0.1,3.5,0.7,7,2.2,10.1c1.4,2.8,3.6,5.2,6.3,6.7c2.9,1.6,6.2,2.4,9.5,2.3c3.3,0.1,6.6-0.7,9.5-2.3c2.7-1.6,4.8-3.9,6.2-6.7
			c1.5-3.2,2.3-6.6,2.2-10.1V37.9h21.1v48.6c0.2,7.1-1.5,14.1-4.9,20.4c-3.2,5.7-7.9,10.4-13.6,13.5
			C262.9,123.6,256,125.2,248.1,125.2z"/>
		
			<linearGradient id="SVGID_00000078027482057350332650000005667378023531652517_" gradientUnits="userSpaceOnUse" x1="295.44" y1="145.035" x2="372.88" y2="145.035" gradientTransform="matrix(1 0 0 -1 0 226)">
			<stop  offset="0" style="stop-color:#9EEDFF"/>
			<stop  offset="0.32" style="stop-color:#9EEDFF"/>
			<stop  offset="0.95" style="stop-color:#AFC6E9"/>
			<stop  offset="1" style="stop-color:#AFC6E9"/>
		</linearGradient>
		<path style="fill:url(#SVGID_00000078027482057350332650000005667378023531652517_);" d="M323.6,124V56.6h-28.1V37.9h77.4v18.7
			h-28.1V124H323.6z"/>
		
			<linearGradient id="SVGID_00000064321411468226015090000014549961935809981885_" gradientUnits="userSpaceOnUse" x1="484.675" y1="313.5364" x2="576.6183" y2="313.5364" gradientTransform="matrix(0.973 0.2307 0.2307 -0.973 -167.2597 265.8182)">
			<stop  offset="0" style="stop-color:#9EEDFF"/>
			<stop  offset="0.32" style="stop-color:#9EEDFF"/>
			<stop  offset="0.95" style="stop-color:#AFC6E9"/>
			<stop  offset="1" style="stop-color:#AFC6E9"/>
		</linearGradient>
		<path style="fill:url(#SVGID_00000064321411468226015090000014549961935809981885_);" d="M466.7,76.1c-1-5.7-3.1-11.1-6.2-16
			c-3.2-4.9-7.3-9.2-12-12.6c-10.3-7.1-22.8-10-35.2-8.3c-5.8,0.9-11.4,2.8-16.4,5.8c-5,3-9.3,6.9-12.8,11.5c-7.1,9.8-10,22-8,33.8
			c1,5.7,3.1,11.1,6.2,16c3.2,4.9,7.3,9.2,12,12.6c5.1,3.6,10.8,6.1,16.8,7.5c1.7,0.4,3.4,0.7,5,0.9l2.1,0.1c0-0.3,0.1-0.7,0.1-1
			c0.6-2.7,3.4-4.4,6.1-3.8c2.2,0.5,3.9,2.5,3.9,4.8l1-0.1c5.8-0.9,11.4-2.8,16.4-5.8c5-3,9.3-6.9,12.8-11.5
			C465.8,100.2,468.7,88,466.7,76.1L466.7,76.1z M440.9,98c-5.6,8.1-15.7,11.9-25.2,9.5c-9.6-2.1-16.9-10-18.3-19.8
			c-0.9-6.8,0.7-13.7,4.6-19.3c7.6-10.9,22.7-13.5,33.6-5.9c5.4,3.8,9,9.6,10,16.2c0.5,3.4,0.3,6.8-0.5,10.1
			C444.2,92.1,442.8,95.2,440.9,98z"/>
		<g>
			<defs>
				<path id="SVGID_00000060750958288247913170000012619121078761340332_" d="M50.2,21.5C7.5,55.9,0.7,118.4,35.1,161.1
					c34,42.3,95.7,49.4,138.5,16c1.8-1.4,3.5-2.9,5.2-4.4v-68.9c0-1-0.8-1.8-1.8-1.9c0,0,0,0,0,0c-0.5,0-0.9,0.2-1.3,0.5l-31.9,36.6
					c-2.6,3.1-7.3,3.4-10.3,0.7c0,0,0,0,0,0c-0.3-0.2-0.5-0.5-0.7-0.7l-31.9-36.6c-0.7-0.7-1.9-0.7-2.6,0c0,0,0,0,0,0
					c-0.3,0.3-0.5,0.8-0.5,1.3v71c-19.9,0-36-13.2-36-33.1V38.5c0-5.1,4.1-9.2,9.2-9.3c4.9,0,9.6,1.9,13,5.4l51.7,53.8
					c1.4,1.5,3.7,1.6,5.2,0.2c0.1-0.1,0.2-0.2,0.2-0.2l48.7-50.7c-34-43-96.5-50.3-139.5-16.2C50.3,21.4,50.2,21.5,50.2,21.5"/>
			</defs>
			<clipPath id="SVGID_00000054947524759615269470000012508277305216792709_">
				<use xlink:href="#SVGID_00000060750958288247913170000012619121078761340332_"  style="overflow:visible;"/>
			</clipPath>
			<g style="clip-path:url(#SVGID_00000054947524759615269470000012508277305216792709_);">
				
					<linearGradient id="SVGID_00000003819052577871496730000015325882285620856193_" gradientUnits="userSpaceOnUse" x1="-353.393" y1="341.34" x2="-352.563" y2="341.34" gradientTransform="matrix(211.93 0 0 -237.64 74907.6875 81221.6562)">
					<stop  offset="0" style="stop-color:#9EEDFF"/>
					<stop  offset="0.32" style="stop-color:#9EEDFF"/>
					<stop  offset="0.95" style="stop-color:#AFC6E9"/>
					<stop  offset="1" style="stop-color:#AFC6E9"/>
				</linearGradient>
				<rect style="fill:url(#SVGID_00000003819052577871496730000015325882285620856193_);" width="189.7" height="211.2"/>
			</g>
		</g>
		
			<linearGradient id="SVGID_00000095306209960667295490000003500297648454900412_" gradientUnits="userSpaceOnUse" x1="137.28" y1="76.76" x2="174.2" y2="76.76" gradientTransform="matrix(1 0 0 -1 0 226)">
			<stop  offset="2.000000e-02" style="stop-color:#F7AF0F"/>
			<stop  offset="1" style="stop-color:#D14893"/>
		</linearGradient>
		<path style="fill:url(#SVGID_00000095306209960667295490000003500297648454900412_);" d="M147.3,142.2c-2.3,2.6-5.5,4.1-9,4.1
			c-0.4,0-0.7-0.1-1-0.1c5.3,13.1,8.6,26.9,9.9,41c9.9-4,19-9.6,27-16.6v-59.4L147.3,142.2z"/>
		<g>
			<defs>
				<path id="SVGID_00000165197586288429840370000005405477872246334868_" d="M147.3,142.2c-2.3,2.6-5.5,4.1-9,4.1
					c-0.4,0-0.7-0.1-1-0.1c5.3,13.1,8.6,26.9,9.9,41c9.9-4,19-9.6,27-16.6v-59.4L147.3,142.2z"/>
			</defs>
			<clipPath id="SVGID_00000094578732830590307610000005183883590670550951_">
				<use xlink:href="#SVGID_00000165197586288429840370000005405477872246334868_"  style="overflow:visible;"/>
			</clipPath>
			<g style="clip-path:url(#SVGID_00000094578732830590307610000005183883590670550951_);">
				
					<linearGradient id="SVGID_00000017501747404378385580000001585201819589248694_" gradientUnits="userSpaceOnUse" x1="-350.3329" y1="345.2866" x2="-349.5029" y2="345.2866" gradientTransform="matrix(-32.09 59.61 29 65.97 -21085.1895 -1772.9916)">
					<stop  offset="0" style="stop-color:#FB5193"/>
					<stop  offset="0.84" style="stop-color:#2E63F5"/>
					<stop  offset="1" style="stop-color:#3762F1"/>
				</linearGradient>
				<polygon style="fill:url(#SVGID_00000017501747404378385580000001585201819589248694_);" points="157.6,73.5 118.9,145.4 
					153.9,225 192.6,153.1 				"/>
			</g>
		</g>
		<g>
			<defs>
				<path id="SVGID_00000103952553909461660140000012538810348459254913_" d="M111.9,4.6c-35.4,0-67.8,19.7-84.1,51.1
					c10,1.9,19.9,4.9,29.3,8.9V38.5c0-7.7,6.2-13.9,13.9-13.9c0,0,0,0,0,0c6.1,0,12,2.5,16.3,6.8l51,53.1l45.3-47.1
					c-17.9-20.8-44-32.8-71.5-32.8H111.9"/>
			</defs>
			<clipPath id="SVGID_00000183225470210526888040000007004022074151614860_">
				<use xlink:href="#SVGID_00000103952553909461660140000012538810348459254913_"  style="overflow:visible;"/>
			</clipPath>
			<g style="clip-path:url(#SVGID_00000183225470210526888040000007004022074151614860_);">
				
					<linearGradient id="SVGID_00000162326993880040971490000009198149709215287482_" gradientUnits="userSpaceOnUse" x1="-353.4035" y1="339.0563" x2="-352.5735" y2="339.0563" gradientTransform="matrix(186.34 0 0 -95.65 65881.6953 32475.2891)">
					<stop  offset="0" style="stop-color:#DCFAFF"/>
					<stop  offset="0.32" style="stop-color:#DCFAFF"/>
					<stop  offset="0.97" style="stop-color:#FDFFFF"/>
					<stop  offset="1" style="stop-color:#FDFFFF"/>
				</linearGradient>
				
					<rect x="27.8" y="4.6" style="fill:url(#SVGID_00000162326993880040971490000009198149709215287482_);" width="155.8" height="79.9"/>
			</g>
		</g>
		<path class="st0" d="M455.4,174.1c0-3.7-0.7-7.3-2.1-10.7c-1.4-3.4-3.5-6.6-6.1-9.2c-2.7-2.8-6-5-9.6-6.6c-2-0.9-4.1-1.5-6.2-2
			c-0.1,0.5-0.2,1-0.3,1.5c2,0.4,4,1.1,5.9,1.9c3.4,1.5,6.5,3.6,9.1,6.2c2.5,2.5,4.4,5.5,5.7,8.7c1.3,3.2,2,6.6,2,10.1
			c-0.1,7.2-3.1,14.1-8.4,19.1c-2.5,2.4-5.5,4.2-8.8,5.4c-3.3,1.2-6.8,1.8-10.3,1.7c-7.5-0.3-14.6-3.4-19.9-8.7
			c-2.5-2.5-4.4-5.5-5.8-8.7c-1.3-3.2-2-6.6-1.9-10.1c0.1-7.2,3.1-14.1,8.4-19.1c2.4-2.2,5.2-4,8.3-5.2c-0.2-0.5-0.4-0.9-0.5-1.4
			c-3.3,1.3-6.3,3.2-8.9,5.6c-5.6,5.3-8.8,12.5-8.9,20.2c0,3.7,0.7,7.3,2,10.7c1.4,3.4,3.5,6.6,6.1,9.2c5.6,5.6,13,8.9,20.9,9.2
			c3.7,0.1,7.4-0.5,10.9-1.8c3.4-1.3,6.6-3.2,9.3-5.7C452.1,189,455.3,181.7,455.4,174.1L455.4,174.1z"/>
		<path class="st0" d="M415.2,184.9c6,6.2,15.9,6.3,22,0.4c1.6-1.5,2.9-3.4,3.7-5.5c1.6-4.1,1.6-8.7,0-12.8
			c-1.5-3.8-4.5-6.9-8.3-8.5c-4-1.6-8.4-1.6-12.4,0c-3.8,1.6-6.8,4.7-8.3,8.5c-1.6,4.1-1.6,8.7,0,12.8
			C412.6,181.6,413.7,183.4,415.2,184.9z M413.3,167.5c3-7.3,11.4-10.7,18.6-7.7c0,0,0.1,0,0.1,0c1.7,0.7,3.2,1.7,4.5,3
			c1.3,1.3,2.3,2.9,3,4.6c1.4,3.8,1.4,7.9,0,11.7c-1.3,3.5-4,6.3-7.5,7.7c-3.6,1.5-7.6,1.5-11.2,0c-3.4-1.4-6.1-4.2-7.5-7.7
			C411.9,175.4,411.9,171.2,413.3,167.5L413.3,167.5z"/>
		
			<linearGradient id="SVGID_00000075867395499780696420000007822518663863292322_" gradientUnits="userSpaceOnUse" x1="209.26" y1="3675.5691" x2="278.8679" y2="3675.5691" gradientTransform="matrix(1 0 0 0.29 0 -893.8)">
			<stop  offset="0" style="stop-color:#FB5193"/>
			<stop  offset="0.84" style="stop-color:#2E63F5"/>
			<stop  offset="1" style="stop-color:#3762F1"/>
		</linearGradient>
		
			<rect x="209.3" y="171.1" style="fill:url(#SVGID_00000075867395499780696420000007822518663863292322_);" width="69.6" height="2.1"/>
		
			<linearGradient id="SVGID_00000107573099915651351620000013015416733308019848_" gradientUnits="userSpaceOnUse" x1="418.24" y1="79.6" x2="428.48" y2="79.6" gradientTransform="matrix(1 0 0 -1 0 226)">
			<stop  offset="0" style="stop-color:#9EEDFF"/>
			<stop  offset="0.32" style="stop-color:#9EEDFF"/>
			<stop  offset="0.95" style="stop-color:#AFC6E9"/>
			<stop  offset="1" style="stop-color:#AFC6E9"/>
		</linearGradient>
		<circle style="fill:url(#SVGID_00000107573099915651351620000013015416733308019848_);" cx="423.4" cy="146.4" r="5.1"/>
		
			<linearGradient id="SVGID_00000040535950408681434410000014578444958120046000_" gradientUnits="userSpaceOnUse" x1="423.2911" y1="86.27" x2="423.4211" y2="96.18" gradientTransform="matrix(1 0 0 -1 0 226)">
			<stop  offset="0" style="stop-color:#A8D7F3"/>
			<stop  offset="9.000000e-02" style="stop-color:#A3D1EC;stop-opacity:0.97"/>
			<stop  offset="0.22" style="stop-color:#96C0D9;stop-opacity:0.89"/>
			<stop  offset="0.38" style="stop-color:#80A4B9;stop-opacity:0.76"/>
			<stop  offset="0.56" style="stop-color:#617C8D;stop-opacity:0.58"/>
			<stop  offset="0.75" style="stop-color:#3A4A54;stop-opacity:0.35"/>
			<stop  offset="0.96" style="stop-color:#0B0E10;stop-opacity:7.000000e-02"/>
			<stop  offset="1" style="stop-color:#000000;stop-opacity:0"/>
		</linearGradient>
		
			<rect x="423.2" y="126.9" style="fill:url(#SVGID_00000040535950408681434410000014578444958120046000_);" width="0.3" height="14.3"/>
		<g>
			<defs>
				<path id="SVGID_00000060738049103730368820000007579615301083273374_" d="M286.4,203.8l2-28.7c0,0,14.3-10.2,22.6-4.1
					s30.7,0,32.8-8.2s23.6-1,24.6,8.2c1-3.1,21.5,7.2,19.5-5.1s7.2,9.2,7.2,9.2s8.2-6.1,14.3-2.1s12.3-2.1,12.3-2.1
					s34.8,8.2,34.8-4.1s6.1,41,6.1,41l-157.8,18.4L286.4,203.8z"/>
			</defs>
			<clipPath id="SVGID_00000045600515899162824930000007547869724934334624_">
				<use xlink:href="#SVGID_00000060738049103730368820000007579615301083273374_"  style="overflow:visible;"/>
			</clipPath>
			<g style="clip-path:url(#SVGID_00000045600515899162824930000007547869724934334624_);">
				<path class="st15" d="M291.8,199.9v-53.1h21.5c3.8,0,7.5,0.7,11,2.1c3.3,1.3,6.3,3.2,8.9,5.7c2.5,2.4,4.6,5.3,6,8.5
					c1.5,3.3,2.2,6.9,2.2,10.5c0,3.5-0.7,7.1-2.2,10.3c-1.4,3.2-3.5,6-6,8.4c-2.6,2.4-5.6,4.3-8.9,5.6c-3.5,1.4-7.2,2-11,2
					L291.8,199.9z M304.8,188.4h8.2c2,0,4-0.4,5.8-1.1c1.8-0.7,3.4-1.8,4.7-3.2c1.4-1.4,2.4-3,3.2-4.7c0.8-1.8,1.2-3.8,1.1-5.8
					c0-2-0.4-4.1-1.1-5.9c-0.7-1.8-1.8-3.4-3.2-4.8c-1.4-1.4-3-2.5-4.7-3.2c-1.8-0.8-3.8-1.2-5.8-1.2h-8.2L304.8,188.4z"/>
				<path class="st15" d="M313.3,200.6H291V146h22.3c3.9,0,7.7,0.7,11.3,2.1c3.4,1.3,6.5,3.3,9.1,5.8c2.6,2.5,4.7,5.4,6.2,8.7
					c1.5,3.4,2.2,7.1,2.2,10.8c0,3.7-0.7,7.3-2.2,10.6c-1.5,3.3-3.6,6.2-6.2,8.6c-2.7,2.5-5.8,4.5-9.1,5.8
					C321,199.9,317.2,200.7,313.3,200.6z M292.6,199.1h20.8c3.7,0,7.3-0.7,10.7-2c3.2-1.3,6.1-3.1,8.7-5.5c2.5-2.3,4.4-5.1,5.8-8.1
					c1.4-3.1,2.1-6.6,2.1-10c0-3.5-0.7-7-2.1-10.1c-1.4-3.1-3.4-5.9-5.8-8.2c-2.5-2.4-5.5-4.2-8.7-5.5c-3.4-1.3-7-2-10.7-2h-20.8
					V199.1z M313,189.1h-9v-31.5h8.9c2.1,0,4.2,0.4,6.1,1.2c1.9,0.8,3.6,1.9,5,3.4c1.4,1.4,2.6,3.2,3.4,5.1c0.8,2,1.2,4.1,1.2,6.2
					c0,4.2-1.6,8.1-4.5,11.1C321.2,187.5,317.2,189.2,313,189.1L313,189.1z M305.6,187.6h7.4c7.7,0,14-6.2,14.1-13.9
					c0-0.1,0-0.1,0-0.2c0-1.9-0.4-3.9-1.1-5.7c-0.7-1.7-1.7-3.3-3-4.6c-1.3-1.3-2.8-2.3-4.5-3.1c-1.7-0.7-3.6-1.1-5.5-1.1h-7.4
					L305.6,187.6z"/>
				<path class="st15" d="M340.6,199.9l21.8-53.1h14.9l21.5,53.1h-14.1l-4.9-12.8h-20.7l-4.9,12.8H340.6z M363.1,176.7H376l-6.4-17
					L363.1,176.7z"/>
				<path class="st15" d="M399.9,200.6h-15.8l-4.9-12.8h-19.6l-4.9,12.8h-15.2l22.4-54.6h16L399.9,200.6z M385.2,199.1h12.4
					l-20.8-51.5h-13.9l-21.1,51.5h11.9l4.9-12.8h21.8L385.2,199.1z M377.1,177.4H362l7.6-19.9L377.1,177.4z M364.2,175.9h10.7
					l-5.3-14L364.2,175.9z"/>
				<path class="st15" d="M426.4,200.7c-3.8,0-7.6-0.7-11.1-2.1c-3.4-1.3-6.4-3.3-9-5.8c-2.6-2.5-4.6-5.4-6-8.7
					c-2.9-6.9-2.9-14.6,0-21.4c1.4-3.3,3.4-6.2,6-8.7c2.6-2.5,5.6-4.5,9-5.8c7.2-2.8,15.1-2.8,22.3,0c3.3,1.3,6.4,3.3,9,5.8
					c2.6,2.5,4.6,5.4,6,8.7c2.9,6.9,2.9,14.6,0,21.4c-1.4,3.3-3.4,6.2-6,8.7c-2.6,2.5-5.7,4.5-9,5.8
					C434,200,430.2,200.7,426.4,200.7z M426.4,188.7c6.1,0.1,11.6-3.6,13.8-9.3c0.8-1.9,1.2-4,1.1-6.1c0-2.1-0.4-4.2-1.1-6.1
					c-3.2-7.7-12-11.3-19.6-8.1c-1.8,0.8-3.5,1.9-4.8,3.2c-1.4,1.4-2.4,3-3.1,4.9c-0.8,1.9-1.2,4-1.1,6.1c0,2.1,0.4,4.2,1.1,6.1
					c0.7,1.8,1.8,3.5,3.1,4.9C418.5,187.2,422.4,188.8,426.4,188.7L426.4,188.7z"/>
				<path class="st15" d="M426.3,202.1c-3.9,0-7.8-0.7-11.4-2.2c-3.4-1.4-6.6-3.5-9.3-6.1c-2.6-2.6-4.7-5.7-6.2-9.1
					c-3-7.1-3-15.2,0-22.3c1.5-3.4,3.6-6.5,6.2-9.1c2.7-2.6,5.8-4.7,9.3-6.1c7.3-2.9,15.5-2.9,22.8,0c3.5,1.4,6.6,3.5,9.3,6.1
					c2.6,2.6,4.7,5.7,6.2,9.1c3,7.1,3,15.2,0,22.3c-1.5,3.4-3.6,6.5-6.2,9.1c-2.7,2.6-5.8,4.7-9.3,6.1
					C434.1,201.4,430.3,202.2,426.3,202.1z M426.4,146.8c-3.7,0-7.4,0.6-10.9,2c-3.3,1.3-6.3,3.2-8.8,5.7c-2.5,2.4-4.5,5.3-5.9,8.5
					c-2.8,6.7-2.8,14.2,0,20.9c1.4,3.2,3.4,6.1,5.9,8.5c2.5,2.4,5.5,4.4,8.8,5.7c7,2.7,14.7,2.7,21.7,0c3.3-1.3,6.2-3.2,8.8-5.7
					c2.5-2.4,4.5-5.3,5.9-8.5c2.8-6.7,2.8-14.2,0-20.9c-1.4-3.2-3.4-6.1-5.9-8.5c-2.5-2.4-5.5-4.4-8.8-5.7
					C433.8,147.4,430.1,146.7,426.4,146.8z M426.4,189.5c-6.4,0.1-12.2-3.8-14.5-9.8c-1.6-4.1-1.6-8.7,0-12.8
					c1.5-3.8,4.5-6.9,8.3-8.5c4-1.6,8.4-1.6,12.4,0c3.8,1.6,6.8,4.7,8.3,8.5c1.6,4.1,1.6,8.7,0,12.8
					C438.5,185.7,432.8,189.6,426.4,189.5L426.4,189.5z M426.4,158.7c-5.8-0.1-11,3.4-13.1,8.8c-1.4,3.8-1.4,7.9,0,11.7
					c1.3,3.5,4,6.3,7.5,7.7c3.6,1.5,7.6,1.5,11.2,0c3.4-1.4,6.1-4.2,7.5-7.7c1.4-3.8,1.4-7.9,0-11.7c-0.7-1.7-1.7-3.3-3-4.6
					c-1.3-1.3-2.8-2.3-4.5-3C430.2,159.1,428.3,158.7,426.4,158.7z"/>
			</g>
		</g>
	</g>
</g>
</svg>
