<svg xmlns="http://www.w3.org/2000/svg" xmlns:xlink="http://www.w3.org/1999/xlink" viewBox="0 0 382.96 185.16"><defs><style>.cls-1{fill:none;}.cls-2{fill:url(#linear-gradient);}.cls-3{fill:url(#linear-gradient-2);}.cls-4{fill:url(#linear-gradient-3);}.cls-5{clip-path:url(#clip-path);}.cls-6{fill:url(#linear-gradient-4);}.cls-7{clip-path:url(#clip-path-2);}.cls-8{fill:url(#linear-gradient-6);}.cls-9{clip-path:url(#clip-path-3);}.cls-10{fill:url(#linear-gradient-7);}.cls-11{fill:url(#linear-gradient-8);}.cls-12{fill:#fff;}.cls-13{fill:url(#linear-gradient-9);}.cls-14{fill:url(#linear-gradient-10);}.cls-15{clip-path:url(#clip-path-4);}.cls-16{fill:#af3aaf;}</style><linearGradient id="linear-gradient" x1="112.98" y1="122.82" x2="143.39" y2="122.82" gradientUnits="userSpaceOnUse"><stop offset="0.02" stop-color="#fcba30"/><stop offset="1" stop-color="#ff3661"/></linearGradient><linearGradient id="linear-gradient-2" x1="172.02" y1="67.27" x2="236.46" y2="67.27" gradientUnits="userSpaceOnUse"><stop offset="0" stop-color="#9eedff"/><stop offset="0.32" stop-color="#9eedff"/><stop offset="0.96" stop-color="#afc6e9"/><stop offset="1" stop-color="#afc6e9"/></linearGradient><linearGradient id="linear-gradient-3" x1="243.14" y1="66.76" x2="306.87" y2="66.76" xlink:href="#linear-gradient-2"/><clipPath id="clip-path"><path class="cls-1" d="M41.33,17.68A81.74,81.74,0,0,0,142.86,145.8c1.48-1.17,2.92-2.4,4.31-3.67V85.48a1.51,1.51,0,0,0-1.52-1.5,1.53,1.53,0,0,0-1.05.43l-26.23,30.16a6,6,0,0,1-8.51.59,6.57,6.57,0,0,1-.59-.59L83,84.41a1.51,1.51,0,0,0-2.56,1.07v58.45c-16.38,0-29.66-10.9-29.66-27.27v-85a7.61,7.61,0,0,1,7.6-7.61,15.09,15.09,0,0,1,10.67,4.42l42.51,44.24a3,3,0,0,0,4.26.2l.21-.2L156.15,31A81.72,81.72,0,0,0,41.33,17.68"/></clipPath><linearGradient id="linear-gradient-4" x1="-1095.35" y1="305.63" x2="-1094.67" y2="305.63" gradientTransform="translate(232153.07 -72543.03) scale(211.93 237.64)" xlink:href="#linear-gradient-2"/><clipPath id="clip-path-2"><path class="cls-2" d="M121.21,117.06a9.84,9.84,0,0,1-7.41,3.37c-.29,0-.54-.07-.82-.09a118.12,118.12,0,0,1,8.17,33.73,77.79,77.79,0,0,0,22.24-13.63V91.56Z"/></clipPath><linearGradient id="linear-gradient-6" x1="-1111.42" y1="296.19" x2="-1110.74" y2="296.19" gradientTransform="matrix(-32.09, 59.61, -29, -65.97, -26936.29, 85886.27)" gradientUnits="userSpaceOnUse"><stop offset="0.02" stop-color="#93278f"/><stop offset="1" stop-color="#2e3192"/></linearGradient><clipPath id="clip-path-3"><path class="cls-1" d="M92.1,3.77A78,78,0,0,0,22.91,45.85,118.37,118.37,0,0,1,47,53.17V31.66A11.41,11.41,0,0,1,58.41,20.25a19,19,0,0,1,13.4,5.6l42,43.71L151.1,30.78a77.56,77.56,0,0,0-58.83-27H92.1"/></clipPath><linearGradient id="linear-gradient-7" x1="-1094.9" y1="305.28" x2="-1094.21" y2="305.28" gradientTransform="translate(204046.3 -29162.24) scale(186.34 95.65)" gradientUnits="userSpaceOnUse"><stop offset="0" stop-color="#dcfaff"/><stop offset="0.32" stop-color="#dcfaff"/><stop offset="0.97" stop-color="#fdffff"/><stop offset="1" stop-color="#fdffff"/></linearGradient><linearGradient id="linear-gradient-8" x1="297.1" y1="-246.53" x2="372.77" y2="-246.53" gradientTransform="translate(-37.67 229.35) rotate(13.34)" xlink:href="#linear-gradient-2"/><linearGradient id="linear-gradient-9" x1="346.61" y1="130.15" x2="346.83" y2="112.22" gradientUnits="userSpaceOnUse"><stop offset="0" stop-color="#a8d7f3"/><stop offset="0.09" stop-color="#a3d1ec" stop-opacity="0.97"/><stop offset="0.22" stop-color="#96c0d9" stop-opacity="0.89"/><stop offset="0.38" stop-color="#80a4b9" stop-opacity="0.76"/><stop offset="0.56" stop-color="#617c8d" stop-opacity="0.58"/><stop offset="0.75" stop-color="#3a4a54" stop-opacity="0.35"/><stop offset="0.96" stop-color="#0b0e10" stop-opacity="0.07"/><stop offset="1" stop-opacity="0"/></linearGradient><linearGradient id="linear-gradient-10" x1="342.52" y1="137.17" x2="350.95" y2="137.17" xlink:href="#linear-gradient-2"/><clipPath id="clip-path-4"><path class="cls-1" d="M169.12,154s7-3,9,0,12,0,12,0,8-3,9,1,13-6,20-5,16,6,20,2,16-2,16-2,11,5,11,2,7-9,9-5,13,0,13,0,19,9,21,5,12-7,15-4,12,4,12,4,13-3,17,0,7-2,7-2,17-2,18,2,8,5,8,5l6,14s-88,6-88,7-147-6-147-6Z"/></clipPath></defs><title>Asset 2</title><g id="Layer_2" data-name="Layer 2"><g id="Layer_1-2" data-name="Layer 1"><path class="cls-3" d="M204.19,103.18a35.53,35.53,0,0,1-17.05-3.89A27.25,27.25,0,0,1,176,88.21,34.57,34.57,0,0,1,172,71.31v-40h17.4v40a18.24,18.24,0,0,0,1.82,8.35,12.79,12.79,0,0,0,5.21,5.51,15.53,15.53,0,0,0,7.84,1.93,15.17,15.17,0,0,0,7.84-1.93,13,13,0,0,0,5.11-5.51,18.24,18.24,0,0,0,1.82-8.35v-40h17.4v40a34,34,0,0,1-4,16.8,27.91,27.91,0,0,1-11.23,11.13A35.11,35.11,0,0,1,204.19,103.18Z"/><path class="cls-4" d="M266.31,102.17V46.73H243.14V31.35h63.73V46.73H283.71v55.44Z"/><g class="cls-5"><rect class="cls-6" width="156.15" height="173.83"/></g><path class="cls-2" d="M121.21,117.06a9.84,9.84,0,0,1-7.41,3.37c-.29,0-.54-.07-.82-.09a118.12,118.12,0,0,1,8.17,33.73,77.79,77.79,0,0,0,22.24-13.63V91.56Z"/><g class="cls-7"><polygon class="cls-8" points="129.72 60.47 97.86 119.66 126.65 185.16 158.51 125.97 129.72 60.47"/></g><g class="cls-9"><rect class="cls-10" x="22.91" y="3.77" width="128.19" height="65.8"/></g><path class="cls-11" d="M382.43,60.9a36.29,36.29,0,0,0-5.15-13.18,36.94,36.94,0,0,0-9.91-10.35,41.18,41.18,0,0,0-28.94-6.87,37.13,37.13,0,0,0-13.51,4.8,36.15,36.15,0,0,0-10.51,9.47,37,37,0,0,0-6.61,27.86,36.05,36.05,0,0,0,5.14,13.17,37,37,0,0,0,9.92,10.36,39.31,39.31,0,0,0,13.82,6.14c1.39.33,2.76.57,4.12.76l1.77.09a3.93,3.93,0,0,1,.11-.82,4.2,4.2,0,0,1,8.29.79c.3,0,.59-.06.83-.1a36.83,36.83,0,0,0,13.51-4.8,36.12,36.12,0,0,0,10.51-9.46,37,37,0,0,0,6.61-27.86Zm-21.28,18a19.59,19.59,0,0,1-5.59,5.39A19.85,19.85,0,0,1,348.41,87a19.69,19.69,0,0,1-23.09-16.6,22.7,22.7,0,0,1,3.77-15.9,20.07,20.07,0,0,1,28.08-4.41A19.39,19.39,0,0,1,364.92,63a22.8,22.8,0,0,1-3.77,15.89Z"/><path class="cls-12" d="M198.82,164.35H192.4V148.77L184.73,163l-7.68-14.31v15.64h-6.28V139.1H179l5.83,11.12,5.83-11.12h8.19Zm-5.67-.75h4.92V139.85h-7l-6.28,12-6.28-12h-7V163.6h4.78V145.72l8.43,15.72,8.42-15.64Z"/><path class="cls-12" d="M222.34,164.35H202.13V139.1H222.2v6H208.9v3.66h8.79v5.79H208.9v3.87h13.44Zm-19.46-.75h18.71v-4.46H208.15v-5.37h8.79v-4.29h-8.79v-5.16h13.3v-4.47H202.88Z"/><path class="cls-12" d="M238.51,164.35h-6.77V145.17h-8V139.1h22.8v6.07h-8Zm-6-.75h5.27V144.42h8v-4.57h-21.3v4.57h8Z"/><path class="cls-12" d="M269.39,164.35h-7.33l-2.24-5.91h-9l-2.27,5.91h-7.08l10.35-25.25h7.4Zm-6.81-.75h5.7l-9.61-23.75h-6.39l-9.73,23.75H248l2.28-5.91h10.07Zm-3.74-10h-7l3.56-9.27Zm-5.95-.75h4.87l-2.41-6.4Z"/><path class="cls-12" d="M280.49,164.35h-7.4l-10.2-25.25h7.32l6.71,17.57,6.85-17.57h7.08Zm-6.89-.75H280l9.74-23.75h-5.45l-7.37,18.91-7.22-18.91H264Z"/><path class="cls-12" d="M311.91,164.35H291.7V139.1h20.07v6h-13.3v3.66h8.78v5.79h-8.78v3.87h13.44Zm-19.46-.75h18.71v-4.46H297.72v-5.37h8.78v-4.29h-8.78v-5.16H311v-4.47H292.45Z"/><path class="cls-12" d="M337.64,164.35h-7.58l-4.62-8.92h-4v8.92h-6.77V139.1H327.6a10.17,10.17,0,0,1,4.65,1,8,8,0,0,1,3.21,2.9,7.89,7.89,0,0,1,1.16,4.24,7.48,7.48,0,0,1-1.33,4.35,8.46,8.46,0,0,1-3.12,2.72Zm-7.12-.75h5.86L331.13,154l.37-.17a7.65,7.65,0,0,0,3.17-2.64,6.68,6.68,0,0,0,1.2-3.92,7.09,7.09,0,0,0-1.05-3.84,7.21,7.21,0,0,0-2.91-2.63,9.49,9.49,0,0,0-4.31-1H315.44V163.6h5.27v-8.92h5.19ZM327,150.53h-6.33v-6.28H327a3.59,3.59,0,0,1,2.5.87,3.1,3.1,0,0,1,0,4.54A3.59,3.59,0,0,1,327,150.53Zm-5.58-.75H327a2.82,2.82,0,0,0,2-.68,2.15,2.15,0,0,0,.74-1.71,2.18,2.18,0,0,0-.74-1.72,2.86,2.86,0,0,0-2-.67h-5.58Z"/><path class="cls-12" d="M357.87,151.39a10.1,10.1,0,0,0-5.57-2.45l-5.07-.83a5.48,5.48,0,0,1-2.07-.71,1.26,1.26,0,0,1-.53-1.09,1.18,1.18,0,0,1,.37-.88,2.82,2.82,0,0,1,1.2-.64,7.4,7.4,0,0,1,2-.25,12.09,12.09,0,0,1,7.3,2.83l.31.24,3.61-5.05-.27-.22a15.72,15.72,0,0,0-4.91-2.64,17.06,17.06,0,0,0-2.48-.64,3.68,3.68,0,0,1-.32.7,18.48,18.48,0,0,1,2.56.65,15.16,15.16,0,0,1,4.4,2.29l-2.75,3.85a12.56,12.56,0,0,0-7.45-2.76,8.15,8.15,0,0,0-2.22.28,3.5,3.5,0,0,0-1.52.83,1.93,1.93,0,0,0-.59,1.41,2,2,0,0,0,.84,1.7,6,6,0,0,0,2.38.84l5.08.84a9.36,9.36,0,0,1,5.17,2.24,5.75,5.75,0,0,1,1.72,4.35,6.83,6.83,0,0,1-1.22,4.07A7.86,7.86,0,0,1,354.3,163a14.94,14.94,0,0,1-5.6.95,16.28,16.28,0,0,1-5.75-1.06,17.08,17.08,0,0,1-4.79-2.71l2.91-3.79a17.06,17.06,0,0,0,3.92,2.42,10.62,10.62,0,0,0,4.17.82,9.38,9.38,0,0,0,2.48-.29,3.68,3.68,0,0,0,1.67-.93,2.14,2.14,0,0,0,.63-1.54A2.18,2.18,0,0,0,353,155a6.69,6.69,0,0,0-2.78-.94l-5.39-.95a7.53,7.53,0,0,1-4.38-2.16,6,6,0,0,1-1.51-4.19,6.63,6.63,0,0,1,1.14-3.88,6.94,6.94,0,0,1,2.59-2.17,4.35,4.35,0,0,1-.46-.6,7.4,7.4,0,0,0-2.74,2.34,7.29,7.29,0,0,0-1.28,4.31,6.71,6.71,0,0,0,1.71,4.7,8.28,8.28,0,0,0,4.8,2.39l5.39,1a6.3,6.3,0,0,1,2.47.8,1.47,1.47,0,0,1,.61,1.27,1.37,1.37,0,0,1-.42,1,2.9,2.9,0,0,1-1.33.72,8.33,8.33,0,0,1-2.28.27,10.09,10.09,0,0,1-3.88-.76,17.1,17.1,0,0,1-4-2.55l-.3-.24-3.81,5,.27.23a17.75,17.75,0,0,0,5.29,3.08,17.25,17.25,0,0,0,6,1.1,15.6,15.6,0,0,0,5.88-1,8.7,8.7,0,0,0,3.88-2.91,7.6,7.6,0,0,0,1.36-4.51A6.52,6.52,0,0,0,357.87,151.39Z"/><path class="cls-12" d="M382.05,164.35H361.84V139.1h20.07v6h-13.3v3.66h8.78v5.79h-8.78v3.87h13.44Zm-19.46-.75H381.3v-4.46H367.86v-5.37h8.78v-4.29h-8.78v-5.16h13.3v-4.47H362.59Z"/><rect class="cls-13" x="346.61" y="106.98" width="0.25" height="25.97"/><circle class="cls-14" cx="346.73" cy="137.17" r="4.22"/><g class="cls-15"><path class="cls-16" d="M171.15,164v-24.5h7.59L184.8,151l6-11.55h7.6V164h-5.67v-16.7l-8.05,14.95-8-15V164Z"/><path class="cls-16" d="M198.82,164.35H192.4V148.77L184.73,163l-7.68-14.31v15.64h-6.28V139.1H179l5.83,11.12,5.83-11.12h8.19Zm-5.67-.75h4.92V139.85h-7l-6.28,12-6.28-12h-7V163.6h4.78V145.72l8.43,15.72,8.42-15.64Z"/><path class="cls-16" d="M202.51,164v-24.5h19.32v5.21h-13.3v4.41h8.78v5h-8.78v4.62H222V164Z"/><path class="cls-16" d="M222.34,164.35H202.13V139.1H222.2v6H208.9v3.66h8.79v5.79H208.9v3.87h13.44Zm-19.46-.75h18.71v-4.46H208.15v-5.37h8.79v-4.29h-8.79v-5.16h13.3v-4.47H202.88Z"/><path class="cls-16" d="M232.12,164V144.8h-8v-5.32h22.05v5.32h-8V164Z"/><path class="cls-16" d="M238.51,164.35h-6.77V145.17h-8V139.1h22.8v6.07h-8Zm-6-.75h5.27V144.42h8v-4.57h-21.3v4.57h8Z"/><path class="cls-16" d="M242,164l10-24.5h6.9l9.9,24.5h-6.51l-2.24-5.92h-9.55L248.25,164Zm10.36-10.71h6l-2.94-7.84Z"/><path class="cls-16" d="M269.39,164.35h-7.33l-2.24-5.91h-9l-2.27,5.91h-7.08l10.35-25.25h7.4Zm-6.81-.75h5.7l-9.61-23.75h-6.39l-9.73,23.75H248l2.28-5.91h10.07Zm-3.74-10h-7l3.56-9.27Zm-5.95-.75h4.87l-2.41-6.4Z"/><path class="cls-16" d="M273.35,164l-9.91-24.5H270l7,18.23,7.1-18.23h6.27L280.24,164Z"/><path class="cls-16" d="M280.49,164.35h-7.4l-10.2-25.25h7.32l6.71,17.57,6.85-17.57h7.08Zm-6.89-.75H280l9.74-23.75h-5.45l-7.37,18.91-7.22-18.91H264Z"/><path class="cls-16" d="M292.07,164v-24.5h19.32v5.21h-13.3v4.41h8.79v5h-8.79v4.62h13.44V164Z"/><path class="cls-16" d="M311.91,164.35H291.7V139.1h20.07v6h-13.3v3.66h8.78v5.79h-8.78v3.87h13.44Zm-19.46-.75h18.71v-4.46H297.72v-5.37h8.78v-4.29h-8.78v-5.16H311v-4.47H292.45Z"/><path class="cls-16" d="M315.07,164v-24.5H327.6a9.69,9.69,0,0,1,4.48,1,7.37,7.37,0,0,1,4.16,6.8,7.05,7.05,0,0,1-1.26,4.13,8,8,0,0,1-3.32,2.77L337,164h-6.72l-4.62-8.93h-4.58V164Zm6-13.83h6a3.2,3.2,0,0,0,2.25-.77,2.51,2.51,0,0,0,.86-2,2.55,2.55,0,0,0-.86-2,3.25,3.25,0,0,0-2.25-.77h-6Z"/><path class="cls-16" d="M337.64,164.35h-7.58l-4.62-8.92h-4v8.92h-6.77V139.1H327.6a10.17,10.17,0,0,1,4.65,1,8,8,0,0,1,3.21,2.9,7.89,7.89,0,0,1,1.16,4.24,7.48,7.48,0,0,1-1.33,4.35,8.46,8.46,0,0,1-3.12,2.72Zm-7.12-.75h5.86L331.13,154l.37-.17a7.65,7.65,0,0,0,3.17-2.64,6.68,6.68,0,0,0,1.2-3.92,7.09,7.09,0,0,0-1.05-3.84,7.21,7.21,0,0,0-2.91-2.63,9.49,9.49,0,0,0-4.31-1H315.44V163.6h5.27v-8.92h5.19ZM327,150.53h-6.33v-6.28H327a3.59,3.59,0,0,1,2.5.87,3.1,3.1,0,0,1,0,4.54A3.59,3.59,0,0,1,327,150.53Zm-5.58-.75H327a2.82,2.82,0,0,0,2-.68,2.15,2.15,0,0,0,.74-1.71,2.18,2.18,0,0,0-.74-1.72,2.86,2.86,0,0,0-2-.67h-5.58Z"/><path class="cls-16" d="M348.7,164.33a16.57,16.57,0,0,1-5.88-1.09,17.13,17.13,0,0,1-5.18-3l3.36-4.37a17.56,17.56,0,0,0,4.13,2.61,10.45,10.45,0,0,0,4,.78,8.68,8.68,0,0,0,2.38-.28,3.27,3.27,0,0,0,1.5-.82,1.78,1.78,0,0,0,.53-1.28,1.84,1.84,0,0,0-.77-1.57,6.62,6.62,0,0,0-2.63-.88l-5.39-.94a7.84,7.84,0,0,1-4.58-2.28,6.25,6.25,0,0,1-1.61-4.44,7,7,0,0,1,1.2-4.1,7.61,7.61,0,0,1,3.47-2.62,14.23,14.23,0,0,1,5.37-.91,17.21,17.21,0,0,1,5.5.93,15,15,0,0,1,4.79,2.57l-3.18,4.45a12.34,12.34,0,0,0-7.53-2.91,7.78,7.78,0,0,0-2.12.26,3.14,3.14,0,0,0-1.36.74,1.51,1.51,0,0,0-.47,1.13,1.59,1.59,0,0,0,.68,1.4,5.47,5.47,0,0,0,2.22.77l5.08.84a9.77,9.77,0,0,1,5.37,2.35,6.18,6.18,0,0,1,1.84,4.62,7.18,7.18,0,0,1-1.3,4.29,8.2,8.2,0,0,1-3.71,2.78A15.28,15.28,0,0,1,348.7,164.33Z"/><path class="cls-16" d="M348.7,164.7a17.25,17.25,0,0,1-6-1.1,17.75,17.75,0,0,1-5.29-3.08l-.27-.23,3.81-5,.3.24a16.9,16.9,0,0,0,4,2.55,10.05,10.05,0,0,0,3.88.76,8.21,8.21,0,0,0,2.27-.27,2.89,2.89,0,0,0,1.34-.72,1.4,1.4,0,0,0,.42-1,1.47,1.47,0,0,0-.61-1.27,6.28,6.28,0,0,0-2.47-.81l-5.39-.94a8.25,8.25,0,0,1-4.8-2.39,6.71,6.71,0,0,1-1.71-4.7,7.29,7.29,0,0,1,1.28-4.31,7.9,7.9,0,0,1,3.63-2.76,14.77,14.77,0,0,1,5.51-.94,17.68,17.68,0,0,1,5.62.95,15.84,15.84,0,0,1,4.91,2.64l.27.22-3.61,5.05-.31-.24a12,12,0,0,0-7.3-2.83,7.4,7.4,0,0,0-2,.25,2.87,2.87,0,0,0-1.21.64,1.2,1.2,0,0,0-.36.87,1.24,1.24,0,0,0,.53,1.1,5.42,5.42,0,0,0,2.07.71l5.07.83a10.14,10.14,0,0,1,5.57,2.45,6.56,6.56,0,0,1,1.95,4.89,7.6,7.6,0,0,1-1.36,4.51,8.75,8.75,0,0,1-3.88,2.91A15.6,15.6,0,0,1,348.7,164.7Zm-10.54-4.52a17.08,17.08,0,0,0,4.79,2.71A16.28,16.28,0,0,0,348.7,164a15,15,0,0,0,5.6-.95,7.86,7.86,0,0,0,3.55-2.65,6.83,6.83,0,0,0,1.22-4.07,5.75,5.75,0,0,0-1.72-4.35,9.39,9.39,0,0,0-5.17-2.25l-5.08-.84a6,6,0,0,1-2.38-.83,2,2,0,0,1-.84-1.71,2,2,0,0,1,.58-1.4,3.55,3.55,0,0,1,1.53-.83,8,8,0,0,1,2.22-.28,12.56,12.56,0,0,1,7.44,2.75l2.76-3.84a15.29,15.29,0,0,0-4.4-2.29,17,17,0,0,0-5.38-.91,13.92,13.92,0,0,0-5.23.89,7.17,7.17,0,0,0-3.3,2.49,6.56,6.56,0,0,0-1.14,3.88,6,6,0,0,0,1.51,4.19,7.5,7.5,0,0,0,4.38,2.16l5.39.95A6.69,6.69,0,0,1,353,155a2.18,2.18,0,0,1,.92,1.87,2.14,2.14,0,0,1-.63,1.54,3.63,3.63,0,0,1-1.67.92,9,9,0,0,1-2.48.3,10.62,10.62,0,0,1-4.17-.82,16.85,16.85,0,0,1-3.92-2.42Z"/><path class="cls-16" d="M362.21,164v-24.5h19.32v5.21h-13.3v4.41H377v5h-8.79v4.62h13.44V164Z"/><path class="cls-16" d="M382.05,164.35H361.84V139.1h20.07v6h-13.3v3.66h8.78v5.79h-8.78v3.87h13.44Zm-19.46-.75H381.3v-4.46H367.86v-5.37h8.78v-4.29h-8.78v-5.16h13.3v-4.47H362.59Z"/></g></g></g></svg>