<svg xmlns="http://www.w3.org/2000/svg" xmlns:xlink="http://www.w3.org/1999/xlink" viewBox="0 0 469.06 225.8"><defs><style>.cls-1{fill:none;}.cls-2{fill:url(#linear-gradient);}.cls-3{fill:#fff;}.cls-4{fill:url(#linear-gradient-2);}.cls-5{fill:url(#linear-gradient-3);}.cls-6{fill:url(#linear-gradient-4);}.cls-7{clip-path:url(#clip-path);}.cls-8{fill:url(#linear-gradient-5);}.cls-9{clip-path:url(#clip-path-2);}.cls-10{fill:url(#linear-gradient-7);}.cls-11{clip-path:url(#clip-path-3);}.cls-12{fill:url(#linear-gradient-8);}.cls-13{fill:url(#linear-gradient-9);}.cls-14{fill:url(#linear-gradient-10);}.cls-15{fill:url(#linear-gradient-11);}.cls-16{clip-path:url(#clip-path-4);}.cls-17{fill:#f7af0f;}</style><linearGradient id="linear-gradient" x1="137.78" y1="149.77" x2="174.86" y2="149.77" gradientUnits="userSpaceOnUse"><stop offset="0.02" stop-color="#f7af0f"/><stop offset="1" stop-color="#d14893"/></linearGradient><linearGradient id="linear-gradient-2" x1="209.77" y1="81.87" x2="288.36" y2="81.87" gradientUnits="userSpaceOnUse"><stop offset="0" stop-color="#9eedff"/><stop offset="0.32" stop-color="#9eedff"/><stop offset="0.95" stop-color="#afc6e9"/><stop offset="1" stop-color="#afc6e9"/></linearGradient><linearGradient id="linear-gradient-3" x1="296.5" y1="81.25" x2="374.22" y2="81.25" xlink:href="#linear-gradient-2"/><linearGradient id="linear-gradient-4" x1="400.98" y1="-13.33" x2="493.26" y2="-13.33" gradientTransform="translate(-15.22 -6.73) rotate(13.34)" xlink:href="#linear-gradient-2"/><clipPath id="clip-path"><path class="cls-1" d="M50.4,21.56A99.67,99.67,0,1,0,174.22,177.79q2.7-2.13,5.25-4.46V104.24a1.84,1.84,0,0,0-1.86-1.83,1.8,1.8,0,0,0-1.27.53l-32,36.78a7.35,7.35,0,0,1-10.37.71,7.93,7.93,0,0,1-.71-.71l-32-36.78a1.83,1.83,0,0,0-2.6,0,1.81,1.81,0,0,0-.53,1.29v71.28c-20,0-36.17-13.3-36.17-33.26V38.61a9.29,9.29,0,0,1,9.26-9.29,18.46,18.46,0,0,1,13,5.4l51.84,53.94a3.68,3.68,0,0,0,5.2.26l.25-.26,48.9-50.89a99.66,99.66,0,0,0-140-16.21"/></clipPath><linearGradient id="linear-gradient-5" x1="-79.65" y1="283.75" x2="-78.81" y2="283.75" gradientTransform="translate(16892.4 -67323.76) scale(211.93 237.64)" xlink:href="#linear-gradient-2"/><clipPath id="clip-path-2"><path class="cls-2" d="M147.81,142.75a12,12,0,0,1-9,4.11c-.34,0-.66-.08-1-.11a144.38,144.38,0,0,1,10,41.13,94.71,94.71,0,0,0,27.12-16.62v-59.6Z"/></clipPath><linearGradient id="linear-gradient-7" x1="-73.6" y1="289.11" x2="-72.76" y2="289.11" gradientTransform="matrix(-32.09, 59.61, -29, -65.97, 6192.45, 23580.49)" xlink:href="#linear-gradient"/><clipPath id="clip-path-3"><path class="cls-1" d="M112.31,4.59A95.16,95.16,0,0,0,27.94,55.91a145,145,0,0,1,29.38,8.93V38.61A13.91,13.91,0,0,1,71.23,24.7a23.16,23.16,0,0,1,16.34,6.82l51.24,53.31,45.45-47.29A94.57,94.57,0,0,0,112.52,4.59h-.21"/></clipPath><linearGradient id="linear-gradient-8" x1="-79.84" y1="283.54" x2="-79" y2="283.54" gradientTransform="translate(14904.81 -27074.71) scale(186.34 95.65)" gradientUnits="userSpaceOnUse"><stop offset="0" stop-color="#dcfaff"/><stop offset="0.32" stop-color="#dcfaff"/><stop offset="0.97" stop-color="#fdffff"/><stop offset="1" stop-color="#fdffff"/></linearGradient><linearGradient id="linear-gradient-9" x1="210.02" y1="-1697.8" x2="292.26" y2="-1697.8" gradientTransform="matrix(1, 0, 0, -0.29, 0, -311.27)" gradientUnits="userSpaceOnUse"><stop offset="0" stop-color="#a948bf"/><stop offset="1" stop-color="#f7af0f"/></linearGradient><linearGradient id="linear-gradient-10" x1="419.75" y1="146.92" x2="430.03" y2="146.92" xlink:href="#linear-gradient-2"/><linearGradient id="linear-gradient-11" x1="424.82" y1="140.23" x2="424.94" y2="130.29" gradientUnits="userSpaceOnUse"><stop offset="0" stop-color="#a8d7f3"/><stop offset="0.09" stop-color="#a3d1ec" stop-opacity="0.97"/><stop offset="0.22" stop-color="#96c0d9" stop-opacity="0.89"/><stop offset="0.38" stop-color="#80a4b9" stop-opacity="0.76"/><stop offset="0.56" stop-color="#617c8d" stop-opacity="0.58"/><stop offset="0.75" stop-color="#3a4a54" stop-opacity="0.35"/><stop offset="0.96" stop-color="#0b0e10" stop-opacity="0.07"/><stop offset="1" stop-opacity="0"/></linearGradient><clipPath id="clip-path-4"><path class="cls-1" d="M309.74,202.44l-1-42.15s11.31,3.08,21.59,5.14,27.76,9.25,31.87,3.08,13.37,1,17.48,3.09,20.56,6.17,22.62,0,0-6.17,2.06-6.17,20.56-6.17,26.73,2.06,30.84,2,34.95-8.23,22.62,14.39,22.62,22.62-18.51,63.74-20.56,63.74-119.26,8.23-119.26,8.23l-57.57-14.4Z"/></clipPath></defs><title>Asset 1</title><g id="Layer_2" data-name="Layer 2"><g id="Layer_1-2" data-name="Layer 1"><path class="cls-3" d="M326.93,200.08H312.41v-54.7H341.2a19.8,19.8,0,0,1,9.67,2.34A17.38,17.38,0,0,1,360,163.37a16.89,16.89,0,0,1-2.47,9,17.51,17.51,0,0,1-6.74,6.31A20.08,20.08,0,0,1,341.2,181H326.93Zm-13.08-1.44h11.64v-19.1H341.2a18.62,18.62,0,0,0,8.94-2.12,16,16,0,0,0,6.19-5.79,15.5,15.5,0,0,0,2.26-8.26A15.91,15.91,0,0,0,350.17,149a18.34,18.34,0,0,0-9-2.16H313.85Zm25.83-28.46H325.49V156.57h14.19a7.07,7.07,0,0,1,5.14,1.91,6.67,6.67,0,0,1,2,5,6.46,6.46,0,0,1-2,4.85A7.13,7.13,0,0,1,339.68,170.18Zm-12.75-1.44h12.75a5.66,5.66,0,0,0,4.14-1.48,5,5,0,0,0,1.53-3.81,5.23,5.23,0,0,0-1.53-3.94,5.65,5.65,0,0,0-4.14-1.5H326.93Z"/><path class="cls-3" d="M411.34,200.08H395.63l-4.87-12.86H371L366,200.08H350.85l22.43-54.7h16l.19.45Zm-14.72-1.44h12.59l-20.95-51.82h-14L353,198.64h12.05L370,185.78h21.76Zm-8.2-21.84h-15L381,157Zm-12.93-1.44h10.85L381,161.06Z"/><path class="cls-4" d="M249,125.66q-12,0-20.79-4.75a33.1,33.1,0,0,1-13.63-13.51q-4.82-8.75-4.81-20.6V38.07H231V86.8A22.22,22.22,0,0,0,233.21,97a15.69,15.69,0,0,0,6.35,6.72,19,19,0,0,0,9.56,2.35,18.58,18.58,0,0,0,9.57-2.35A15.91,15.91,0,0,0,264.92,97a22.22,22.22,0,0,0,2.22-10.18V38.07h21.22V86.8a41.52,41.52,0,0,1-4.87,20.48,34.08,34.08,0,0,1-13.7,13.57Q261,125.67,249,125.66Z"/><path class="cls-5" d="M324.75,124.43V56.82H296.5V38.07h77.72V56.82H346v67.61Z"/><path class="cls-6" d="M468.41,76.32a44.21,44.21,0,0,0-6.27-16.07,45.08,45.08,0,0,0-12.09-12.63,50.1,50.1,0,0,0-35.29-8.37,45,45,0,0,0-16.48,5.86,44.16,44.16,0,0,0-12.82,11.54,45.15,45.15,0,0,0-8,34,44,44,0,0,0,6.27,16.07,45.08,45.08,0,0,0,12.09,12.63,48,48,0,0,0,16.86,7.49c1.69.4,3.36.69,5,.92l2.16.11a4.8,4.8,0,0,1,.13-1,5.12,5.12,0,0,1,10.11,1l1-.12a45,45,0,0,0,16.48-5.86,44.16,44.16,0,0,0,12.82-11.54,45,45,0,0,0,8.05-34Zm-25.94,22A24.13,24.13,0,0,1,398.77,88a27.68,27.68,0,0,1,4.6-19.38,24.17,24.17,0,0,1,43.69,10.36,27.69,27.69,0,0,1-4.59,19.38Z"/><g class="cls-7"><rect class="cls-8" width="190.42" height="211.99"/></g><path class="cls-2" d="M147.81,142.75a12,12,0,0,1-9,4.11c-.34,0-.66-.08-1-.11a144.38,144.38,0,0,1,10,41.13,94.71,94.71,0,0,0,27.12-16.62v-59.6Z"/><g class="cls-9"><polygon class="cls-10" points="158.19 73.74 119.33 145.92 154.45 225.8 193.3 153.62 158.19 73.74"/></g><g class="cls-11"><rect class="cls-12" x="27.94" y="4.59" width="156.32" height="80.24"/></g><rect class="cls-13" x="210.02" y="171.7" width="82.25" height="2.06"/><path class="cls-3" d="M441.56,187.31a15.51,15.51,0,0,0,9.53-14.43,16.35,16.35,0,0,0-1.19-6.24,15.43,15.43,0,0,0-3.36-5.07,16.12,16.12,0,0,0-5-3.39,15.23,15.23,0,0,0-6.11-1.23h-8.94v31.56h8.94A15.47,15.47,0,0,0,441.56,187.31ZM428,158.39h7.5A13.76,13.76,0,0,1,441,159.5a14.8,14.8,0,0,1,4.54,3.09,14,14,0,0,1,3,4.59,14.76,14.76,0,0,1,1.09,5.7,14.11,14.11,0,0,1-1.08,5.54,14.06,14.06,0,0,1-13.11,8.65H428Z"/><path class="cls-3" d="M462.4,162.09a27.32,27.32,0,0,0-6.17-8.75,29,29,0,0,0-9.17-5.85,30,30,0,0,0-11.3-2.11h-3.85a6.91,6.91,0,0,1,.16,1.44h3.69a28.86,28.86,0,0,1,10.77,2,27.43,27.43,0,0,1,8.71,5.56,26.05,26.05,0,0,1,5.85,8.3,25,25,0,0,1,2.1,10.2,24.16,24.16,0,0,1-2.1,10.05,25.89,25.89,0,0,1-5.85,8.18,27.67,27.67,0,0,1-8.71,5.52,28.66,28.66,0,0,1-10.77,2H414.88V146.82h2.82a6.91,6.91,0,0,1,.17-1.44h-4.43v54.7h22.32a30,30,0,0,0,11.3-2.11,29.23,29.23,0,0,0,9.17-5.81,27.09,27.09,0,0,0,6.17-8.64,25.62,25.62,0,0,0,2.23-10.64A26.32,26.32,0,0,0,462.4,162.09Z"/><circle class="cls-14" cx="424.89" cy="146.92" r="5.14"/><rect class="cls-15" x="424.73" y="127.39" width="0.31" height="14.39"/><g class="cls-16"><path class="cls-17" d="M313.13,199.36V146.1H341.2a18.93,18.93,0,0,1,9.32,2.25,16.62,16.62,0,0,1,8.79,15A16.2,16.2,0,0,1,357,172a16.67,16.67,0,0,1-6.47,6,19.2,19.2,0,0,1-9.28,2.21h-15v19.1Zm13.08-29.9h13.47a6.44,6.44,0,0,0,4.64-1.68,5.74,5.74,0,0,0,1.75-4.33,6,6,0,0,0-1.75-4.45,6.37,6.37,0,0,0-4.64-1.71H326.21Z"/><path class="cls-17" d="M327,200.13H312.36v-54.8H341.2a19.87,19.87,0,0,1,9.69,2.34,17.89,17.89,0,0,1,6.72,6.4,17.64,17.64,0,0,1,2.47,9.3,17,17,0,0,1-2.47,9,17.59,17.59,0,0,1-6.76,6.32,20.12,20.12,0,0,1-9.65,2.3H327Zm-13.08-1.54h11.54v-19.1H341.2a18.65,18.65,0,0,0,8.92-2.11,16.05,16.05,0,0,0,6.17-5.78,15.45,15.45,0,0,0,2.25-8.23,16.11,16.11,0,0,0-2.25-8.5,16.29,16.29,0,0,0-6.14-5.85,18.4,18.4,0,0,0-8.95-2.15H313.9Zm25.78-28.36H325.44V156.51h14.24a7.1,7.1,0,0,1,5.18,1.94,6.73,6.73,0,0,1,2,5,6.5,6.5,0,0,1-2,4.89A7.21,7.21,0,0,1,339.68,170.23ZM327,168.69h12.7a5.68,5.68,0,0,0,4.11-1.46,5,5,0,0,0,1.51-3.78,5.17,5.17,0,0,0-1.52-3.9,5.55,5.55,0,0,0-4.1-1.49H327Z"/><path class="cls-17" d="M351.93,199.36l21.83-53.26h15l21.53,53.26H396.13l-4.87-12.86H370.49l-4.95,12.86Zm22.52-23.28h12.93L381,159Z"/><path class="cls-17" d="M411.42,200.13H395.6l-4.87-12.86H371l-4.95,12.86H350.78l22.46-54.8h16Zm-14.76-1.54h12.47l-20.9-51.72h-14l-21.2,51.72H365L370,185.73h21.83Zm-8.17-21.74H373.32l7.68-20Zm-12.92-1.54h10.7L381,161.21Z"/><path class="cls-17" d="M414.16,199.36V146.1h21.6a29.18,29.18,0,0,1,11,2.06,28.1,28.1,0,0,1,8.94,5.7,26.59,26.59,0,0,1,6,8.52,25.47,25.47,0,0,1,2.17,10.5,24.78,24.78,0,0,1-2.17,10.35,26.2,26.2,0,0,1-6,8.4,28.37,28.37,0,0,1-8.94,5.67,29.18,29.18,0,0,1-11,2.06Zm13.08-11.57h8.22a14.78,14.78,0,0,0,14.91-14.91,15.56,15.56,0,0,0-1.14-6,14.58,14.58,0,0,0-3.19-4.83,15.45,15.45,0,0,0-4.76-3.24,14.48,14.48,0,0,0-5.82-1.17h-8.22Z"/><path class="cls-17" d="M435.76,200.13H413.39v-54.8h22.37a30.11,30.11,0,0,1,11.32,2.11,28.92,28.92,0,0,1,9.19,5.86,27.59,27.59,0,0,1,6.18,8.77,26.44,26.44,0,0,1,2.23,10.81,25.79,25.79,0,0,1-2.23,10.67,27.3,27.3,0,0,1-6.19,8.65,29.19,29.19,0,0,1-9.18,5.82A30.11,30.11,0,0,1,435.76,200.13Zm-20.83-1.54h20.83a28.75,28.75,0,0,0,10.75-2,27.92,27.92,0,0,0,8.7-5.52,25.63,25.63,0,0,0,5.83-8.16,24.2,24.2,0,0,0,2.1-10A24.9,24.9,0,0,0,461,162.7a25.94,25.94,0,0,0-5.84-8.28,27.48,27.48,0,0,0-8.69-5.55,28.75,28.75,0,0,0-10.75-2H414.93Zm20.53-10h-9V156.89h9a15.17,15.17,0,0,1,6.13,1.25,16.16,16.16,0,0,1,5,3.39,15.31,15.31,0,0,1,3.36,5.09,16.27,16.27,0,0,1,1.2,6.26A15.5,15.5,0,0,1,446.58,184a15.34,15.34,0,0,1-5,3.36A15.61,15.61,0,0,1,435.46,188.56ZM428,187h7.45a14,14,0,0,0,14.14-14.14,14.84,14.84,0,0,0-1.08-5.68,13.92,13.92,0,0,0-3-4.58,14.7,14.7,0,0,0-4.52-3.07,13.67,13.67,0,0,0-5.51-1.11H428Z"/></g></g></g></svg>